<mxfile host="app.diagrams.net" modified="2022-10-04T00:49:37.840Z" agent="5.0 (Macintosh; Intel Mac OS X 10_15_7) AppleWebKit/537.36 (KHTML, like Gecko) Chrome/105.0.0.0 Safari/537.36" etag="7eLqxBTVdnIDWtX9Z-7t" version="20.3.7" type="github" pages="2">
  <diagram id="VSPdkyaA-r9_W4nAyfyy" name="หน้า-1">
    <mxGraphModel dx="1113" dy="655" grid="1" gridSize="10" guides="1" tooltips="1" connect="1" arrows="1" fold="1" page="1" pageScale="1" pageWidth="827" pageHeight="1169" math="0" shadow="0">
      <root>
        <mxCell id="0" />
        <mxCell id="1" parent="0" />
        <mxCell id="itd64RHTtm4jQYPxFAOI-216" value="" style="group" vertex="1" connectable="0" parent="1">
          <mxGeometry x="18" y="40" width="780" height="2390" as="geometry" />
        </mxCell>
        <mxCell id="itd64RHTtm4jQYPxFAOI-217" value="เริ่มต้น" style="ellipse;whiteSpace=wrap;html=1;" vertex="1" parent="itd64RHTtm4jQYPxFAOI-216">
          <mxGeometry x="349" width="90" height="50" as="geometry" />
        </mxCell>
        <mxCell id="itd64RHTtm4jQYPxFAOI-218" value="ดึงข้อมูล Config" style="rounded=1;whiteSpace=wrap;html=1;" vertex="1" parent="itd64RHTtm4jQYPxFAOI-216">
          <mxGeometry x="334" y="90" width="120" height="60" as="geometry" />
        </mxCell>
        <mxCell id="itd64RHTtm4jQYPxFAOI-219" value="" style="edgeStyle=orthogonalEdgeStyle;rounded=0;orthogonalLoop=1;jettySize=auto;html=1;" edge="1" parent="itd64RHTtm4jQYPxFAOI-216" source="itd64RHTtm4jQYPxFAOI-217" target="itd64RHTtm4jQYPxFAOI-218">
          <mxGeometry relative="1" as="geometry" />
        </mxCell>
        <mxCell id="itd64RHTtm4jQYPxFAOI-220" value="ตรวจสอบ&lt;br&gt;วันที่ปัจจุบันว่า &amp;gt; วันที่จัดประชุมหรือไม่" style="rounded=1;whiteSpace=wrap;html=1;" vertex="1" parent="itd64RHTtm4jQYPxFAOI-216">
          <mxGeometry x="292" y="416" width="205" height="37.5" as="geometry" />
        </mxCell>
        <mxCell id="itd64RHTtm4jQYPxFAOI-221" value="มากกว่า ?" style="rhombus;whiteSpace=wrap;html=1;rounded=1;" vertex="1" parent="itd64RHTtm4jQYPxFAOI-216">
          <mxGeometry x="354.5" y="496" width="80" height="80" as="geometry" />
        </mxCell>
        <mxCell id="itd64RHTtm4jQYPxFAOI-222" value="" style="edgeStyle=orthogonalEdgeStyle;rounded=0;orthogonalLoop=1;jettySize=auto;html=1;" edge="1" parent="itd64RHTtm4jQYPxFAOI-216" source="itd64RHTtm4jQYPxFAOI-220" target="itd64RHTtm4jQYPxFAOI-221">
          <mxGeometry relative="1" as="geometry" />
        </mxCell>
        <mxCell id="itd64RHTtm4jQYPxFAOI-223" value="ตรวจสอบค่า&lt;br&gt;เวลาสิ้นสุดการจัดประชุม" style="whiteSpace=wrap;html=1;rounded=1;" vertex="1" parent="itd64RHTtm4jQYPxFAOI-216">
          <mxGeometry x="325.5" y="618" width="139" height="38" as="geometry" />
        </mxCell>
        <mxCell id="itd64RHTtm4jQYPxFAOI-224" value="" style="edgeStyle=orthogonalEdgeStyle;rounded=0;orthogonalLoop=1;jettySize=auto;html=1;" edge="1" parent="itd64RHTtm4jQYPxFAOI-216" source="itd64RHTtm4jQYPxFAOI-221" target="itd64RHTtm4jQYPxFAOI-223">
          <mxGeometry relative="1" as="geometry" />
        </mxCell>
        <mxCell id="itd64RHTtm4jQYPxFAOI-225" value="ไม่ใช่" style="edgeLabel;html=1;align=center;verticalAlign=middle;resizable=0;points=[];" vertex="1" connectable="0" parent="itd64RHTtm4jQYPxFAOI-224">
          <mxGeometry x="-0.3424" y="-1" relative="1" as="geometry">
            <mxPoint as="offset" />
          </mxGeometry>
        </mxCell>
        <mxCell id="itd64RHTtm4jQYPxFAOI-226" value="เกินวันที่จัดประชุม&lt;br&gt;กำหนดค่า &lt;br&gt;requestStatus = &quot;F&quot;" style="whiteSpace=wrap;html=1;rounded=1;" vertex="1" parent="itd64RHTtm4jQYPxFAOI-216">
          <mxGeometry x="540" y="509.75" width="140" height="52.5" as="geometry" />
        </mxCell>
        <mxCell id="itd64RHTtm4jQYPxFAOI-227" value="" style="edgeStyle=orthogonalEdgeStyle;rounded=0;orthogonalLoop=1;jettySize=auto;html=1;" edge="1" parent="itd64RHTtm4jQYPxFAOI-216" source="itd64RHTtm4jQYPxFAOI-221" target="itd64RHTtm4jQYPxFAOI-226">
          <mxGeometry relative="1" as="geometry" />
        </mxCell>
        <mxCell id="itd64RHTtm4jQYPxFAOI-228" value="ใช่" style="edgeLabel;html=1;align=center;verticalAlign=middle;resizable=0;points=[];" vertex="1" connectable="0" parent="itd64RHTtm4jQYPxFAOI-227">
          <mxGeometry x="-0.0888" y="-1" relative="1" as="geometry">
            <mxPoint as="offset" />
          </mxGeometry>
        </mxCell>
        <mxCell id="itd64RHTtm4jQYPxFAOI-229" value="มี ?" style="rhombus;whiteSpace=wrap;html=1;rounded=1;" vertex="1" parent="itd64RHTtm4jQYPxFAOI-216">
          <mxGeometry x="355" y="686" width="80" height="80" as="geometry" />
        </mxCell>
        <mxCell id="itd64RHTtm4jQYPxFAOI-230" value="" style="edgeStyle=orthogonalEdgeStyle;rounded=0;orthogonalLoop=1;jettySize=auto;html=1;" edge="1" parent="itd64RHTtm4jQYPxFAOI-216" source="itd64RHTtm4jQYPxFAOI-223" target="itd64RHTtm4jQYPxFAOI-229">
          <mxGeometry relative="1" as="geometry" />
        </mxCell>
        <mxCell id="itd64RHTtm4jQYPxFAOI-231" value="กำหนดเวลาสิ้นสุดเป็น&lt;br&gt;23:59:00 ในกรณีที่ไม่มีข้อมูล&amp;nbsp;&amp;nbsp;" style="whiteSpace=wrap;html=1;rounded=1;" vertex="1" parent="itd64RHTtm4jQYPxFAOI-216">
          <mxGeometry x="540" y="696" width="130" height="60" as="geometry" />
        </mxCell>
        <mxCell id="itd64RHTtm4jQYPxFAOI-232" value="" style="edgeStyle=orthogonalEdgeStyle;rounded=0;orthogonalLoop=1;jettySize=auto;html=1;" edge="1" parent="itd64RHTtm4jQYPxFAOI-216" source="itd64RHTtm4jQYPxFAOI-229" target="itd64RHTtm4jQYPxFAOI-231">
          <mxGeometry relative="1" as="geometry" />
        </mxCell>
        <mxCell id="itd64RHTtm4jQYPxFAOI-233" value="ไม่ใช่" style="edgeLabel;html=1;align=center;verticalAlign=middle;resizable=0;points=[];" vertex="1" connectable="0" parent="itd64RHTtm4jQYPxFAOI-232">
          <mxGeometry x="-0.1446" y="2" relative="1" as="geometry">
            <mxPoint as="offset" />
          </mxGeometry>
        </mxCell>
        <mxCell id="itd64RHTtm4jQYPxFAOI-234" value="ตรวจสอบ&lt;br&gt;เวลาปัจจุบัน &amp;gt; เวลาสิ้นสุดของการจัดประชุมหรือไม่" style="whiteSpace=wrap;html=1;rounded=1;" vertex="1" parent="itd64RHTtm4jQYPxFAOI-216">
          <mxGeometry x="282" y="826" width="225" height="57" as="geometry" />
        </mxCell>
        <mxCell id="itd64RHTtm4jQYPxFAOI-235" value="" style="edgeStyle=orthogonalEdgeStyle;rounded=0;orthogonalLoop=1;jettySize=auto;html=1;" edge="1" parent="itd64RHTtm4jQYPxFAOI-216" source="itd64RHTtm4jQYPxFAOI-229" target="itd64RHTtm4jQYPxFAOI-234">
          <mxGeometry relative="1" as="geometry" />
        </mxCell>
        <mxCell id="itd64RHTtm4jQYPxFAOI-236" value="มี" style="edgeLabel;html=1;align=center;verticalAlign=middle;resizable=0;points=[];" vertex="1" connectable="0" parent="itd64RHTtm4jQYPxFAOI-235">
          <mxGeometry x="-0.203" y="2" relative="1" as="geometry">
            <mxPoint as="offset" />
          </mxGeometry>
        </mxCell>
        <mxCell id="itd64RHTtm4jQYPxFAOI-237" style="edgeStyle=orthogonalEdgeStyle;rounded=0;orthogonalLoop=1;jettySize=auto;html=1;" edge="1" parent="itd64RHTtm4jQYPxFAOI-216" source="itd64RHTtm4jQYPxFAOI-231" target="itd64RHTtm4jQYPxFAOI-234">
          <mxGeometry relative="1" as="geometry">
            <Array as="points">
              <mxPoint x="605" y="855" />
            </Array>
          </mxGeometry>
        </mxCell>
        <mxCell id="itd64RHTtm4jQYPxFAOI-238" value="มากกว่า ?" style="rhombus;whiteSpace=wrap;html=1;rounded=1;" vertex="1" parent="itd64RHTtm4jQYPxFAOI-216">
          <mxGeometry x="355" y="918" width="80" height="80" as="geometry" />
        </mxCell>
        <mxCell id="itd64RHTtm4jQYPxFAOI-239" value="" style="edgeStyle=orthogonalEdgeStyle;rounded=0;orthogonalLoop=1;jettySize=auto;html=1;" edge="1" parent="itd64RHTtm4jQYPxFAOI-216" source="itd64RHTtm4jQYPxFAOI-234" target="itd64RHTtm4jQYPxFAOI-238">
          <mxGeometry relative="1" as="geometry" />
        </mxCell>
        <mxCell id="itd64RHTtm4jQYPxFAOI-240" style="edgeStyle=orthogonalEdgeStyle;rounded=0;orthogonalLoop=1;jettySize=auto;html=1;endArrow=none;endFill=0;" edge="1" parent="itd64RHTtm4jQYPxFAOI-216" source="itd64RHTtm4jQYPxFAOI-241">
          <mxGeometry relative="1" as="geometry">
            <mxPoint x="789" y="958" as="targetPoint" />
          </mxGeometry>
        </mxCell>
        <mxCell id="itd64RHTtm4jQYPxFAOI-241" value="เกินเวลาที่จัดประชุม&lt;br&gt;กำหนดค่า&lt;br&gt;requestStatus = &quot;F&quot;" style="whiteSpace=wrap;html=1;rounded=1;" vertex="1" parent="itd64RHTtm4jQYPxFAOI-216">
          <mxGeometry x="540" y="929" width="145" height="58" as="geometry" />
        </mxCell>
        <mxCell id="itd64RHTtm4jQYPxFAOI-242" value="" style="edgeStyle=orthogonalEdgeStyle;rounded=0;orthogonalLoop=1;jettySize=auto;html=1;" edge="1" parent="itd64RHTtm4jQYPxFAOI-216" source="itd64RHTtm4jQYPxFAOI-238" target="itd64RHTtm4jQYPxFAOI-241">
          <mxGeometry relative="1" as="geometry" />
        </mxCell>
        <mxCell id="itd64RHTtm4jQYPxFAOI-243" value="ใช่" style="edgeLabel;html=1;align=center;verticalAlign=middle;resizable=0;points=[];" vertex="1" connectable="0" parent="itd64RHTtm4jQYPxFAOI-242">
          <mxGeometry x="-0.058" y="-1" relative="1" as="geometry">
            <mxPoint as="offset" />
          </mxGeometry>
        </mxCell>
        <mxCell id="itd64RHTtm4jQYPxFAOI-244" value="&lt;meta charset=&quot;utf-8&quot;&gt;&lt;span style=&quot;color: rgb(0, 0, 0); font-family: Helvetica; font-size: 12px; font-style: normal; font-variant-ligatures: normal; font-variant-caps: normal; font-weight: 400; letter-spacing: normal; orphans: 2; text-align: center; text-indent: 0px; text-transform: none; widows: 2; word-spacing: 0px; -webkit-text-stroke-width: 0px; background-color: rgb(248, 249, 250); text-decoration-thickness: initial; text-decoration-style: initial; text-decoration-color: initial; float: none; display: inline !important;&quot;&gt;ตรวจสอบวันที่ในการรับยื่นเอกสารแบบคำร้อง โดยตรวจสอบว่า วันที่ปัจจุบัน อยู่ในช่วง&lt;/span&gt;&lt;br style=&quot;color: rgb(0, 0, 0); font-family: Helvetica; font-size: 12px; font-style: normal; font-variant-ligatures: normal; font-variant-caps: normal; font-weight: 400; letter-spacing: normal; orphans: 2; text-align: center; text-indent: 0px; text-transform: none; widows: 2; word-spacing: 0px; -webkit-text-stroke-width: 0px; background-color: rgb(248, 249, 250); text-decoration-thickness: initial; text-decoration-style: initial; text-decoration-color: initial;&quot;&gt;&lt;span style=&quot;color: rgb(0, 0, 0); font-family: Helvetica; font-size: 12px; font-style: normal; font-variant-ligatures: normal; font-variant-caps: normal; font-weight: 400; letter-spacing: normal; orphans: 2; text-align: center; text-indent: 0px; text-transform: none; widows: 2; word-spacing: 0px; -webkit-text-stroke-width: 0px; background-color: rgb(248, 249, 250); text-decoration-thickness: initial; text-decoration-style: initial; text-decoration-color: initial; float: none; display: inline !important;&quot;&gt;วันที่เริ่มต้น - สิ้นสุด หรือไม่&lt;/span&gt;" style="whiteSpace=wrap;html=1;rounded=1;" vertex="1" parent="itd64RHTtm4jQYPxFAOI-216">
          <mxGeometry x="271.25" y="1036" width="247.5" height="64" as="geometry" />
        </mxCell>
        <mxCell id="itd64RHTtm4jQYPxFAOI-245" value="" style="edgeStyle=orthogonalEdgeStyle;rounded=0;orthogonalLoop=1;jettySize=auto;html=1;" edge="1" parent="itd64RHTtm4jQYPxFAOI-216" source="itd64RHTtm4jQYPxFAOI-238" target="itd64RHTtm4jQYPxFAOI-244">
          <mxGeometry relative="1" as="geometry" />
        </mxCell>
        <mxCell id="itd64RHTtm4jQYPxFAOI-246" value="ไม่ใช่" style="edgeLabel;html=1;align=center;verticalAlign=middle;resizable=0;points=[];" vertex="1" connectable="0" parent="itd64RHTtm4jQYPxFAOI-245">
          <mxGeometry x="-0.3174" relative="1" as="geometry">
            <mxPoint y="1" as="offset" />
          </mxGeometry>
        </mxCell>
        <mxCell id="itd64RHTtm4jQYPxFAOI-247" value="ตรวจสอบข้อมูล &lt;br&gt;Config" style="whiteSpace=wrap;html=1;rounded=1;glass=0;strokeWidth=1;shadow=0;" vertex="1" parent="itd64RHTtm4jQYPxFAOI-216">
          <mxGeometry x="334" y="176" width="120" height="60" as="geometry" />
        </mxCell>
        <mxCell id="itd64RHTtm4jQYPxFAOI-248" value="" style="edgeStyle=orthogonalEdgeStyle;rounded=0;orthogonalLoop=1;jettySize=auto;html=1;entryX=0.5;entryY=0;entryDx=0;entryDy=0;" edge="1" parent="itd64RHTtm4jQYPxFAOI-216" source="itd64RHTtm4jQYPxFAOI-218" target="itd64RHTtm4jQYPxFAOI-247">
          <mxGeometry relative="1" as="geometry" />
        </mxCell>
        <mxCell id="itd64RHTtm4jQYPxFAOI-249" value="มีข้อมูล ?" style="rhombus;whiteSpace=wrap;html=1;rounded=1;glass=0;strokeWidth=1;shadow=0;" vertex="1" parent="itd64RHTtm4jQYPxFAOI-216">
          <mxGeometry x="354" y="266" width="80" height="80" as="geometry" />
        </mxCell>
        <mxCell id="itd64RHTtm4jQYPxFAOI-250" value="" style="edgeStyle=orthogonalEdgeStyle;rounded=0;orthogonalLoop=1;jettySize=auto;html=1;" edge="1" parent="itd64RHTtm4jQYPxFAOI-216" source="itd64RHTtm4jQYPxFAOI-247" target="itd64RHTtm4jQYPxFAOI-249">
          <mxGeometry relative="1" as="geometry" />
        </mxCell>
        <mxCell id="itd64RHTtm4jQYPxFAOI-251" value="ส่ง Error code 404" style="whiteSpace=wrap;html=1;rounded=1;glass=0;strokeWidth=1;shadow=0;" vertex="1" parent="itd64RHTtm4jQYPxFAOI-216">
          <mxGeometry x="513.5" y="286" width="150" height="40" as="geometry" />
        </mxCell>
        <mxCell id="itd64RHTtm4jQYPxFAOI-252" value="" style="edgeStyle=orthogonalEdgeStyle;rounded=0;orthogonalLoop=1;jettySize=auto;html=1;" edge="1" parent="itd64RHTtm4jQYPxFAOI-216" source="itd64RHTtm4jQYPxFAOI-249" target="itd64RHTtm4jQYPxFAOI-251">
          <mxGeometry relative="1" as="geometry" />
        </mxCell>
        <mxCell id="itd64RHTtm4jQYPxFAOI-253" value="ไม่ใช่" style="edgeLabel;html=1;align=center;verticalAlign=middle;resizable=0;points=[];" vertex="1" connectable="0" parent="itd64RHTtm4jQYPxFAOI-252">
          <mxGeometry x="-0.08" y="-2" relative="1" as="geometry">
            <mxPoint as="offset" />
          </mxGeometry>
        </mxCell>
        <mxCell id="itd64RHTtm4jQYPxFAOI-254" value="" style="edgeStyle=orthogonalEdgeStyle;rounded=0;orthogonalLoop=1;jettySize=auto;html=1;" edge="1" parent="itd64RHTtm4jQYPxFAOI-216" source="itd64RHTtm4jQYPxFAOI-249" target="itd64RHTtm4jQYPxFAOI-220">
          <mxGeometry relative="1" as="geometry">
            <mxPoint x="394" y="414" as="targetPoint" />
          </mxGeometry>
        </mxCell>
        <mxCell id="itd64RHTtm4jQYPxFAOI-255" value="ใช่" style="edgeLabel;html=1;align=center;verticalAlign=middle;resizable=0;points=[];" vertex="1" connectable="0" parent="itd64RHTtm4jQYPxFAOI-254">
          <mxGeometry x="-0.2087" y="-1" relative="1" as="geometry">
            <mxPoint as="offset" />
          </mxGeometry>
        </mxCell>
        <mxCell id="itd64RHTtm4jQYPxFAOI-256" value="อยู่ในช่วง ?" style="rhombus;whiteSpace=wrap;html=1;rounded=1;" vertex="1" parent="itd64RHTtm4jQYPxFAOI-216">
          <mxGeometry x="355" y="1142" width="80" height="80" as="geometry" />
        </mxCell>
        <mxCell id="itd64RHTtm4jQYPxFAOI-257" value="" style="edgeStyle=orthogonalEdgeStyle;rounded=0;orthogonalLoop=1;jettySize=auto;html=1;" edge="1" parent="itd64RHTtm4jQYPxFAOI-216" source="itd64RHTtm4jQYPxFAOI-244" target="itd64RHTtm4jQYPxFAOI-256">
          <mxGeometry relative="1" as="geometry" />
        </mxCell>
        <mxCell id="itd64RHTtm4jQYPxFAOI-258" value="ตรวจสอบ&lt;br&gt;วันที่ปัจจุบัน&amp;nbsp; &amp;gt; วันที่ปิดรับเอกสารคำร้อง&lt;br&gt;หรือไม่" style="whiteSpace=wrap;html=1;rounded=1;" vertex="1" parent="itd64RHTtm4jQYPxFAOI-216">
          <mxGeometry x="513.5" y="1232" width="196.5" height="58" as="geometry" />
        </mxCell>
        <mxCell id="itd64RHTtm4jQYPxFAOI-259" value="" style="edgeStyle=orthogonalEdgeStyle;rounded=0;orthogonalLoop=1;jettySize=auto;html=1;" edge="1" parent="itd64RHTtm4jQYPxFAOI-216" source="itd64RHTtm4jQYPxFAOI-256" target="itd64RHTtm4jQYPxFAOI-258">
          <mxGeometry relative="1" as="geometry" />
        </mxCell>
        <mxCell id="itd64RHTtm4jQYPxFAOI-260" value="ไม่ใช่" style="edgeLabel;html=1;align=center;verticalAlign=middle;resizable=0;points=[];" vertex="1" connectable="0" parent="itd64RHTtm4jQYPxFAOI-259">
          <mxGeometry x="-0.069" y="1" relative="1" as="geometry">
            <mxPoint x="-27" y="1" as="offset" />
          </mxGeometry>
        </mxCell>
        <mxCell id="itd64RHTtm4jQYPxFAOI-261" value="มากกว่า ?" style="rhombus;whiteSpace=wrap;html=1;rounded=1;" vertex="1" parent="itd64RHTtm4jQYPxFAOI-216">
          <mxGeometry x="571.75" y="1340" width="80" height="80" as="geometry" />
        </mxCell>
        <mxCell id="itd64RHTtm4jQYPxFAOI-262" value="" style="edgeStyle=orthogonalEdgeStyle;rounded=0;orthogonalLoop=1;jettySize=auto;html=1;" edge="1" parent="itd64RHTtm4jQYPxFAOI-216" source="itd64RHTtm4jQYPxFAOI-258" target="itd64RHTtm4jQYPxFAOI-261">
          <mxGeometry relative="1" as="geometry" />
        </mxCell>
        <mxCell id="itd64RHTtm4jQYPxFAOI-263" style="edgeStyle=orthogonalEdgeStyle;rounded=0;orthogonalLoop=1;jettySize=auto;html=1;endArrow=none;endFill=0;" edge="1" parent="itd64RHTtm4jQYPxFAOI-216" source="itd64RHTtm4jQYPxFAOI-264">
          <mxGeometry relative="1" as="geometry">
            <mxPoint x="630" y="2000" as="targetPoint" />
            <Array as="points">
              <mxPoint x="530" y="1560" />
              <mxPoint x="750" y="1560" />
              <mxPoint x="750" y="2010" />
              <mxPoint x="630" y="2010" />
            </Array>
          </mxGeometry>
        </mxCell>
        <mxCell id="itd64RHTtm4jQYPxFAOI-264" value="ยังไม่ถึงวันที่เปิดรับเอกสารกำหนดค่า&lt;br&gt;requestStatus = &quot;N&quot;" style="whiteSpace=wrap;html=1;rounded=1;" vertex="1" parent="itd64RHTtm4jQYPxFAOI-216">
          <mxGeometry x="470" y="1440" width="120" height="60" as="geometry" />
        </mxCell>
        <mxCell id="itd64RHTtm4jQYPxFAOI-265" value="" style="edgeStyle=orthogonalEdgeStyle;rounded=0;orthogonalLoop=1;jettySize=auto;html=1;entryX=0.5;entryY=0;entryDx=0;entryDy=0;" edge="1" parent="itd64RHTtm4jQYPxFAOI-216" source="itd64RHTtm4jQYPxFAOI-261" target="itd64RHTtm4jQYPxFAOI-264">
          <mxGeometry relative="1" as="geometry">
            <Array as="points">
              <mxPoint x="530" y="1380" />
            </Array>
          </mxGeometry>
        </mxCell>
        <mxCell id="itd64RHTtm4jQYPxFAOI-266" value="ไม่ใช่" style="edgeLabel;html=1;align=center;verticalAlign=middle;resizable=0;points=[];" vertex="1" connectable="0" parent="itd64RHTtm4jQYPxFAOI-265">
          <mxGeometry x="-0.484" y="-1" relative="1" as="geometry">
            <mxPoint as="offset" />
          </mxGeometry>
        </mxCell>
        <mxCell id="itd64RHTtm4jQYPxFAOI-267" style="edgeStyle=orthogonalEdgeStyle;rounded=0;orthogonalLoop=1;jettySize=auto;html=1;endArrow=none;endFill=0;" edge="1" parent="itd64RHTtm4jQYPxFAOI-216" source="itd64RHTtm4jQYPxFAOI-268">
          <mxGeometry relative="1" as="geometry">
            <mxPoint x="700" y="1560" as="targetPoint" />
          </mxGeometry>
        </mxCell>
        <mxCell id="itd64RHTtm4jQYPxFAOI-268" value="เกินวันที่เปิดรับเอกสาร&lt;br&gt;กำหนดค่า&lt;br&gt;requestStatus = &quot;C&quot;" style="whiteSpace=wrap;html=1;rounded=1;" vertex="1" parent="itd64RHTtm4jQYPxFAOI-216">
          <mxGeometry x="640" y="1440" width="120" height="60" as="geometry" />
        </mxCell>
        <mxCell id="itd64RHTtm4jQYPxFAOI-269" value="" style="edgeStyle=orthogonalEdgeStyle;rounded=0;orthogonalLoop=1;jettySize=auto;html=1;" edge="1" parent="itd64RHTtm4jQYPxFAOI-216" source="itd64RHTtm4jQYPxFAOI-261" target="itd64RHTtm4jQYPxFAOI-268">
          <mxGeometry relative="1" as="geometry">
            <Array as="points">
              <mxPoint x="690" y="1380" />
            </Array>
          </mxGeometry>
        </mxCell>
        <mxCell id="itd64RHTtm4jQYPxFAOI-270" value="ใช่" style="edgeLabel;html=1;align=center;verticalAlign=middle;resizable=0;points=[];" vertex="1" connectable="0" parent="itd64RHTtm4jQYPxFAOI-269">
          <mxGeometry x="-0.5369" y="1" relative="1" as="geometry">
            <mxPoint as="offset" />
          </mxGeometry>
        </mxCell>
        <mxCell id="itd64RHTtm4jQYPxFAOI-271" value="ตรวจสอบ&lt;br&gt;วันที่ปัจจุบันตรงวันเริ่มต้นรับเอกสารหรือไม่" style="whiteSpace=wrap;html=1;rounded=1;" vertex="1" parent="itd64RHTtm4jQYPxFAOI-216">
          <mxGeometry x="130" y="1230" width="180" height="60" as="geometry" />
        </mxCell>
        <mxCell id="itd64RHTtm4jQYPxFAOI-272" value="" style="edgeStyle=orthogonalEdgeStyle;rounded=0;orthogonalLoop=1;jettySize=auto;html=1;" edge="1" parent="itd64RHTtm4jQYPxFAOI-216" source="itd64RHTtm4jQYPxFAOI-256" target="itd64RHTtm4jQYPxFAOI-271">
          <mxGeometry relative="1" as="geometry" />
        </mxCell>
        <mxCell id="itd64RHTtm4jQYPxFAOI-273" value="ใช่" style="edgeLabel;html=1;align=center;verticalAlign=middle;resizable=0;points=[];" vertex="1" connectable="0" parent="itd64RHTtm4jQYPxFAOI-272">
          <mxGeometry x="-0.3552" y="-1" relative="1" as="geometry">
            <mxPoint x="-1" as="offset" />
          </mxGeometry>
        </mxCell>
        <mxCell id="itd64RHTtm4jQYPxFAOI-274" value="ตรงกัน ?" style="rhombus;whiteSpace=wrap;html=1;rounded=1;" vertex="1" parent="itd64RHTtm4jQYPxFAOI-216">
          <mxGeometry x="180" y="1332" width="80" height="80" as="geometry" />
        </mxCell>
        <mxCell id="itd64RHTtm4jQYPxFAOI-275" value="" style="edgeStyle=orthogonalEdgeStyle;rounded=0;orthogonalLoop=1;jettySize=auto;html=1;" edge="1" parent="itd64RHTtm4jQYPxFAOI-216" source="itd64RHTtm4jQYPxFAOI-271" target="itd64RHTtm4jQYPxFAOI-274">
          <mxGeometry relative="1" as="geometry" />
        </mxCell>
        <mxCell id="itd64RHTtm4jQYPxFAOI-276" value="ตรวจสอบ&lt;br&gt;เวลาเริ่มต้นรับเอกสาร &amp;gt;= เวลาปัจจุบัน" style="whiteSpace=wrap;html=1;rounded=1;" vertex="1" parent="itd64RHTtm4jQYPxFAOI-216">
          <mxGeometry x="60" y="1454" width="140" height="48" as="geometry" />
        </mxCell>
        <mxCell id="itd64RHTtm4jQYPxFAOI-277" value="" style="edgeStyle=orthogonalEdgeStyle;rounded=0;orthogonalLoop=1;jettySize=auto;html=1;" edge="1" parent="itd64RHTtm4jQYPxFAOI-216" source="itd64RHTtm4jQYPxFAOI-274" target="itd64RHTtm4jQYPxFAOI-276">
          <mxGeometry relative="1" as="geometry">
            <Array as="points">
              <mxPoint x="130" y="1370" />
            </Array>
          </mxGeometry>
        </mxCell>
        <mxCell id="itd64RHTtm4jQYPxFAOI-278" value="ใช่" style="edgeLabel;html=1;align=center;verticalAlign=middle;resizable=0;points=[];" vertex="1" connectable="0" parent="itd64RHTtm4jQYPxFAOI-277">
          <mxGeometry x="-0.5411" y="-1" relative="1" as="geometry">
            <mxPoint as="offset" />
          </mxGeometry>
        </mxCell>
        <mxCell id="itd64RHTtm4jQYPxFAOI-279" value="ตรวจสอบ&lt;br&gt;วันที่ปัจจุบันตรงวันปิดรับเอกสารหรือไม่" style="whiteSpace=wrap;html=1;rounded=1;" vertex="1" parent="itd64RHTtm4jQYPxFAOI-216">
          <mxGeometry x="274.5" y="1448" width="120" height="60" as="geometry" />
        </mxCell>
        <mxCell id="itd64RHTtm4jQYPxFAOI-280" value="" style="edgeStyle=orthogonalEdgeStyle;rounded=0;orthogonalLoop=1;jettySize=auto;html=1;" edge="1" parent="itd64RHTtm4jQYPxFAOI-216" source="itd64RHTtm4jQYPxFAOI-274" target="itd64RHTtm4jQYPxFAOI-279">
          <mxGeometry relative="1" as="geometry">
            <Array as="points">
              <mxPoint x="330" y="1370" />
            </Array>
          </mxGeometry>
        </mxCell>
        <mxCell id="itd64RHTtm4jQYPxFAOI-281" value="ไม่ใช่" style="edgeLabel;html=1;align=center;verticalAlign=middle;resizable=0;points=[];" vertex="1" connectable="0" parent="itd64RHTtm4jQYPxFAOI-280">
          <mxGeometry x="-0.6259" y="1" relative="1" as="geometry">
            <mxPoint x="11" y="3" as="offset" />
          </mxGeometry>
        </mxCell>
        <mxCell id="itd64RHTtm4jQYPxFAOI-282" value="มากกว่า ?" style="rhombus;whiteSpace=wrap;html=1;rounded=1;" vertex="1" parent="itd64RHTtm4jQYPxFAOI-216">
          <mxGeometry x="90" y="1532" width="80" height="80" as="geometry" />
        </mxCell>
        <mxCell id="itd64RHTtm4jQYPxFAOI-283" value="" style="edgeStyle=orthogonalEdgeStyle;rounded=0;orthogonalLoop=1;jettySize=auto;html=1;" edge="1" parent="itd64RHTtm4jQYPxFAOI-216" source="itd64RHTtm4jQYPxFAOI-276" target="itd64RHTtm4jQYPxFAOI-282">
          <mxGeometry relative="1" as="geometry" />
        </mxCell>
        <mxCell id="itd64RHTtm4jQYPxFAOI-284" value="อยู่ในช่วงเวลาเปิดรับเอกสารเอกสารกำหนดค่า&lt;br&gt;requestStatus = &quot;Y&quot;" style="whiteSpace=wrap;html=1;rounded=1;" vertex="1" parent="itd64RHTtm4jQYPxFAOI-216">
          <mxGeometry y="1642" width="130" height="58" as="geometry" />
        </mxCell>
        <mxCell id="itd64RHTtm4jQYPxFAOI-285" value="" style="edgeStyle=orthogonalEdgeStyle;rounded=0;orthogonalLoop=1;jettySize=auto;html=1;" edge="1" parent="itd64RHTtm4jQYPxFAOI-216" source="itd64RHTtm4jQYPxFAOI-282" target="itd64RHTtm4jQYPxFAOI-284">
          <mxGeometry relative="1" as="geometry">
            <Array as="points">
              <mxPoint x="60" y="1572" />
            </Array>
          </mxGeometry>
        </mxCell>
        <mxCell id="itd64RHTtm4jQYPxFAOI-286" value="ไม่ใช่" style="edgeLabel;html=1;align=center;verticalAlign=middle;resizable=0;points=[];" vertex="1" connectable="0" parent="itd64RHTtm4jQYPxFAOI-285">
          <mxGeometry x="-0.6055" relative="1" as="geometry">
            <mxPoint x="6" as="offset" />
          </mxGeometry>
        </mxCell>
        <mxCell id="itd64RHTtm4jQYPxFAOI-287" value="ยังไม่ถึงวันที่เปิดรับเอกสารกำหนดค่า&lt;br&gt;requestStatus = &quot;N&quot;" style="whiteSpace=wrap;html=1;rounded=1;" vertex="1" parent="itd64RHTtm4jQYPxFAOI-216">
          <mxGeometry x="160" y="1642" width="120" height="60" as="geometry" />
        </mxCell>
        <mxCell id="itd64RHTtm4jQYPxFAOI-288" value="" style="edgeStyle=orthogonalEdgeStyle;rounded=0;orthogonalLoop=1;jettySize=auto;html=1;" edge="1" parent="itd64RHTtm4jQYPxFAOI-216" source="itd64RHTtm4jQYPxFAOI-282" target="itd64RHTtm4jQYPxFAOI-287">
          <mxGeometry relative="1" as="geometry">
            <Array as="points">
              <mxPoint x="220" y="1572" />
            </Array>
          </mxGeometry>
        </mxCell>
        <mxCell id="itd64RHTtm4jQYPxFAOI-289" value="ใช่" style="edgeLabel;html=1;align=center;verticalAlign=middle;resizable=0;points=[];" vertex="1" connectable="0" parent="itd64RHTtm4jQYPxFAOI-288">
          <mxGeometry x="-0.5688" relative="1" as="geometry">
            <mxPoint as="offset" />
          </mxGeometry>
        </mxCell>
        <mxCell id="itd64RHTtm4jQYPxFAOI-290" value="ตรงกัน ?" style="rhombus;whiteSpace=wrap;html=1;rounded=1;" vertex="1" parent="itd64RHTtm4jQYPxFAOI-216">
          <mxGeometry x="395" y="1550" width="80" height="80" as="geometry" />
        </mxCell>
        <mxCell id="itd64RHTtm4jQYPxFAOI-291" value="" style="edgeStyle=orthogonalEdgeStyle;rounded=0;orthogonalLoop=1;jettySize=auto;html=1;" edge="1" parent="itd64RHTtm4jQYPxFAOI-216" source="itd64RHTtm4jQYPxFAOI-279" target="itd64RHTtm4jQYPxFAOI-290">
          <mxGeometry relative="1" as="geometry">
            <Array as="points">
              <mxPoint x="334" y="1530" />
              <mxPoint x="435" y="1530" />
            </Array>
          </mxGeometry>
        </mxCell>
        <mxCell id="itd64RHTtm4jQYPxFAOI-292" value="อยู่ในช่วงเวลาและไม่ตรงกับ&lt;br&gt;วันที่เริ่มต้นเเละสิ้นสุดรับเอกสาร&lt;br&gt;requestStatus = &quot;Y&quot;&amp;nbsp;" style="whiteSpace=wrap;html=1;rounded=1;" vertex="1" parent="itd64RHTtm4jQYPxFAOI-216">
          <mxGeometry x="540" y="1645" width="183" height="48" as="geometry" />
        </mxCell>
        <mxCell id="itd64RHTtm4jQYPxFAOI-293" value="" style="edgeStyle=orthogonalEdgeStyle;rounded=0;orthogonalLoop=1;jettySize=auto;html=1;" edge="1" parent="itd64RHTtm4jQYPxFAOI-216" source="itd64RHTtm4jQYPxFAOI-290" target="itd64RHTtm4jQYPxFAOI-292">
          <mxGeometry relative="1" as="geometry" />
        </mxCell>
        <mxCell id="itd64RHTtm4jQYPxFAOI-294" value="ไม่ใช่" style="edgeLabel;html=1;align=center;verticalAlign=middle;resizable=0;points=[];" vertex="1" connectable="0" parent="itd64RHTtm4jQYPxFAOI-293">
          <mxGeometry x="-0.353" y="1" relative="1" as="geometry">
            <mxPoint as="offset" />
          </mxGeometry>
        </mxCell>
        <mxCell id="itd64RHTtm4jQYPxFAOI-295" value="ตรวจสอบ&lt;br&gt;เวลาสิ้นสุดการรับเอกสาร &amp;lt;= เวลาปัจจุบัน&amp;nbsp;" style="whiteSpace=wrap;html=1;rounded=1;" vertex="1" parent="itd64RHTtm4jQYPxFAOI-216">
          <mxGeometry x="297" y="1648" width="210" height="42" as="geometry" />
        </mxCell>
        <mxCell id="itd64RHTtm4jQYPxFAOI-296" style="edgeStyle=orthogonalEdgeStyle;rounded=0;orthogonalLoop=1;jettySize=auto;html=1;" edge="1" parent="itd64RHTtm4jQYPxFAOI-216" source="itd64RHTtm4jQYPxFAOI-290" target="itd64RHTtm4jQYPxFAOI-295">
          <mxGeometry relative="1" as="geometry">
            <Array as="points">
              <mxPoint x="380" y="1590" />
            </Array>
          </mxGeometry>
        </mxCell>
        <mxCell id="itd64RHTtm4jQYPxFAOI-297" value="ใช่" style="edgeLabel;html=1;align=center;verticalAlign=middle;resizable=0;points=[];" vertex="1" connectable="0" parent="itd64RHTtm4jQYPxFAOI-296">
          <mxGeometry x="0.0685" y="-1" relative="1" as="geometry">
            <mxPoint as="offset" />
          </mxGeometry>
        </mxCell>
        <mxCell id="itd64RHTtm4jQYPxFAOI-298" value="น้อยกว่า ?" style="rhombus;whiteSpace=wrap;html=1;rounded=1;" vertex="1" parent="itd64RHTtm4jQYPxFAOI-216">
          <mxGeometry x="340" y="1726" width="80" height="80" as="geometry" />
        </mxCell>
        <mxCell id="itd64RHTtm4jQYPxFAOI-299" value="" style="edgeStyle=orthogonalEdgeStyle;rounded=0;orthogonalLoop=1;jettySize=auto;html=1;" edge="1" parent="itd64RHTtm4jQYPxFAOI-216" source="itd64RHTtm4jQYPxFAOI-295" target="itd64RHTtm4jQYPxFAOI-298">
          <mxGeometry relative="1" as="geometry">
            <Array as="points">
              <mxPoint x="380" y="1700" />
              <mxPoint x="380" y="1700" />
            </Array>
          </mxGeometry>
        </mxCell>
        <mxCell id="itd64RHTtm4jQYPxFAOI-300" value="อยู่ในช่วงเวลาเปิดรับเอกสารเอกสารกำหนดค่า&lt;br&gt;requestStatus = &quot;Y&quot;" style="whiteSpace=wrap;html=1;rounded=1;" vertex="1" parent="itd64RHTtm4jQYPxFAOI-216">
          <mxGeometry x="250" y="1836" width="130" height="58" as="geometry" />
        </mxCell>
        <mxCell id="itd64RHTtm4jQYPxFAOI-301" value="" style="edgeStyle=orthogonalEdgeStyle;rounded=0;orthogonalLoop=1;jettySize=auto;html=1;exitX=0.027;exitY=0.501;exitDx=0;exitDy=0;exitPerimeter=0;" edge="1" parent="itd64RHTtm4jQYPxFAOI-216" source="itd64RHTtm4jQYPxFAOI-298">
          <mxGeometry relative="1" as="geometry">
            <Array as="points">
              <mxPoint x="305" y="1766" />
            </Array>
            <mxPoint x="335" y="1766" as="sourcePoint" />
            <mxPoint x="305" y="1836" as="targetPoint" />
          </mxGeometry>
        </mxCell>
        <mxCell id="itd64RHTtm4jQYPxFAOI-302" value="ไม่ใช่" style="edgeLabel;html=1;align=center;verticalAlign=middle;resizable=0;points=[];" vertex="1" connectable="0" parent="itd64RHTtm4jQYPxFAOI-301">
          <mxGeometry x="-0.6873" y="3" relative="1" as="geometry">
            <mxPoint x="1" y="-3" as="offset" />
          </mxGeometry>
        </mxCell>
        <mxCell id="itd64RHTtm4jQYPxFAOI-303" value="ยังไม่ถึงวันที่เปิดรับเอกสารกำหนดค่า&lt;br&gt;requestStatus = &quot;C&quot;" style="whiteSpace=wrap;html=1;rounded=1;" vertex="1" parent="itd64RHTtm4jQYPxFAOI-216">
          <mxGeometry x="410" y="1836" width="120" height="60" as="geometry" />
        </mxCell>
        <mxCell id="itd64RHTtm4jQYPxFAOI-304" value="" style="edgeStyle=orthogonalEdgeStyle;rounded=0;orthogonalLoop=1;jettySize=auto;html=1;" edge="1" parent="itd64RHTtm4jQYPxFAOI-216" source="itd64RHTtm4jQYPxFAOI-298" target="itd64RHTtm4jQYPxFAOI-303">
          <mxGeometry relative="1" as="geometry">
            <Array as="points">
              <mxPoint x="470" y="1766" />
            </Array>
          </mxGeometry>
        </mxCell>
        <mxCell id="itd64RHTtm4jQYPxFAOI-305" value="ใช่" style="edgeLabel;html=1;align=center;verticalAlign=middle;resizable=0;points=[];" vertex="1" connectable="0" parent="itd64RHTtm4jQYPxFAOI-304">
          <mxGeometry x="-0.6512" y="2" relative="1" as="geometry">
            <mxPoint as="offset" />
          </mxGeometry>
        </mxCell>
        <mxCell id="itd64RHTtm4jQYPxFAOI-306" value="" style="ellipse;whiteSpace=wrap;html=1;aspect=fixed;" vertex="1" parent="itd64RHTtm4jQYPxFAOI-216">
          <mxGeometry x="380" y="1980" width="40" height="40" as="geometry" />
        </mxCell>
        <mxCell id="itd64RHTtm4jQYPxFAOI-307" style="edgeStyle=orthogonalEdgeStyle;rounded=0;orthogonalLoop=1;jettySize=auto;html=1;entryX=0;entryY=1;entryDx=0;entryDy=0;" edge="1" parent="itd64RHTtm4jQYPxFAOI-216" source="itd64RHTtm4jQYPxFAOI-284" target="itd64RHTtm4jQYPxFAOI-306">
          <mxGeometry relative="1" as="geometry">
            <Array as="points">
              <mxPoint x="60" y="2014" />
            </Array>
          </mxGeometry>
        </mxCell>
        <mxCell id="itd64RHTtm4jQYPxFAOI-308" style="edgeStyle=orthogonalEdgeStyle;rounded=0;orthogonalLoop=1;jettySize=auto;html=1;" edge="1" parent="itd64RHTtm4jQYPxFAOI-216" source="itd64RHTtm4jQYPxFAOI-287" target="itd64RHTtm4jQYPxFAOI-306">
          <mxGeometry relative="1" as="geometry">
            <Array as="points">
              <mxPoint x="220" y="2000" />
            </Array>
          </mxGeometry>
        </mxCell>
        <mxCell id="itd64RHTtm4jQYPxFAOI-309" style="edgeStyle=orthogonalEdgeStyle;rounded=0;orthogonalLoop=1;jettySize=auto;html=1;" edge="1" parent="itd64RHTtm4jQYPxFAOI-216" source="itd64RHTtm4jQYPxFAOI-292" target="itd64RHTtm4jQYPxFAOI-306">
          <mxGeometry relative="1" as="geometry">
            <Array as="points">
              <mxPoint x="630" y="2010" />
            </Array>
          </mxGeometry>
        </mxCell>
        <mxCell id="itd64RHTtm4jQYPxFAOI-310" style="edgeStyle=orthogonalEdgeStyle;rounded=0;orthogonalLoop=1;jettySize=auto;html=1;entryX=0;entryY=0;entryDx=0;entryDy=0;" edge="1" parent="itd64RHTtm4jQYPxFAOI-216" source="itd64RHTtm4jQYPxFAOI-300" target="itd64RHTtm4jQYPxFAOI-306">
          <mxGeometry relative="1" as="geometry" />
        </mxCell>
        <mxCell id="itd64RHTtm4jQYPxFAOI-311" style="edgeStyle=orthogonalEdgeStyle;rounded=0;orthogonalLoop=1;jettySize=auto;html=1;entryX=1;entryY=0;entryDx=0;entryDy=0;" edge="1" parent="itd64RHTtm4jQYPxFAOI-216" source="itd64RHTtm4jQYPxFAOI-303" target="itd64RHTtm4jQYPxFAOI-306">
          <mxGeometry relative="1" as="geometry" />
        </mxCell>
        <mxCell id="itd64RHTtm4jQYPxFAOI-312" value="ตรวจสอบ requestStatus = &quot;Y&quot; ไหม" style="rounded=1;whiteSpace=wrap;html=1;" vertex="1" parent="itd64RHTtm4jQYPxFAOI-216">
          <mxGeometry x="340" y="2050" width="120" height="60" as="geometry" />
        </mxCell>
        <mxCell id="itd64RHTtm4jQYPxFAOI-313" value="" style="edgeStyle=orthogonalEdgeStyle;rounded=0;orthogonalLoop=1;jettySize=auto;html=1;endArrow=none;endFill=0;" edge="1" parent="itd64RHTtm4jQYPxFAOI-216" source="itd64RHTtm4jQYPxFAOI-306" target="itd64RHTtm4jQYPxFAOI-312">
          <mxGeometry relative="1" as="geometry" />
        </mxCell>
        <mxCell id="itd64RHTtm4jQYPxFAOI-314" value="Y ?" style="rhombus;whiteSpace=wrap;html=1;rounded=1;" vertex="1" parent="itd64RHTtm4jQYPxFAOI-216">
          <mxGeometry x="350" y="2140" width="80" height="80" as="geometry" />
        </mxCell>
        <mxCell id="itd64RHTtm4jQYPxFAOI-315" style="edgeStyle=orthogonalEdgeStyle;rounded=0;orthogonalLoop=1;jettySize=auto;html=1;endArrow=none;endFill=0;entryX=0.502;entryY=0.04;entryDx=0;entryDy=0;entryPerimeter=0;" edge="1" parent="itd64RHTtm4jQYPxFAOI-216" source="itd64RHTtm4jQYPxFAOI-312" target="itd64RHTtm4jQYPxFAOI-314">
          <mxGeometry relative="1" as="geometry">
            <mxPoint x="400" y="2130" as="targetPoint" />
            <Array as="points">
              <mxPoint x="399" y="2130" />
            </Array>
          </mxGeometry>
        </mxCell>
        <mxCell id="itd64RHTtm4jQYPxFAOI-316" style="edgeStyle=orthogonalEdgeStyle;rounded=0;orthogonalLoop=1;jettySize=auto;html=1;endArrow=none;endFill=0;" edge="1" parent="1" source="itd64RHTtm4jQYPxFAOI-251">
          <mxGeometry relative="1" as="geometry">
            <mxPoint x="807" y="346" as="targetPoint" />
          </mxGeometry>
        </mxCell>
        <mxCell id="itd64RHTtm4jQYPxFAOI-317" style="edgeStyle=orthogonalEdgeStyle;rounded=0;orthogonalLoop=1;jettySize=auto;html=1;endArrow=none;endFill=0;" edge="1" parent="1" source="itd64RHTtm4jQYPxFAOI-226">
          <mxGeometry relative="1" as="geometry">
            <mxPoint x="807" y="576" as="targetPoint" />
          </mxGeometry>
        </mxCell>
        <mxCell id="itd64RHTtm4jQYPxFAOI-318" style="edgeStyle=orthogonalEdgeStyle;rounded=0;orthogonalLoop=1;jettySize=auto;html=1;endArrow=none;endFill=0;" edge="1" parent="1">
          <mxGeometry relative="1" as="geometry">
            <mxPoint x="807" y="2280" as="targetPoint" />
            <mxPoint x="807" y="345" as="sourcePoint" />
          </mxGeometry>
        </mxCell>
        <mxCell id="itd64RHTtm4jQYPxFAOI-319" value="ค้นหาข้อมูลใน &lt;br&gt;Table Request Temp ที่ &lt;br&gt;verifyToken ,&amp;nbsp; requestId&amp;nbsp; ตรงกันกับ parameter in : verifytoken , requestTempId" style="rounded=1;whiteSpace=wrap;html=1;" vertex="1" parent="1">
          <mxGeometry x="292.5" y="2320" width="229" height="70" as="geometry" />
        </mxCell>
        <mxCell id="itd64RHTtm4jQYPxFAOI-320" value="มีข้อมูล ?" style="rhombus;whiteSpace=wrap;html=1;rounded=1;" vertex="1" parent="1">
          <mxGeometry x="367" y="2427.5" width="80" height="80" as="geometry" />
        </mxCell>
        <mxCell id="itd64RHTtm4jQYPxFAOI-321" value="" style="edgeStyle=orthogonalEdgeStyle;rounded=0;orthogonalLoop=1;jettySize=auto;html=1;" edge="1" parent="1" source="itd64RHTtm4jQYPxFAOI-319" target="itd64RHTtm4jQYPxFAOI-320">
          <mxGeometry relative="1" as="geometry">
            <mxPoint x="407.0000000000002" y="2387.5" as="sourcePoint" />
          </mxGeometry>
        </mxCell>
        <mxCell id="itd64RHTtm4jQYPxFAOI-322" style="edgeStyle=orthogonalEdgeStyle;rounded=0;orthogonalLoop=1;jettySize=auto;html=1;endArrow=none;endFill=0;" edge="1" parent="1">
          <mxGeometry relative="1" as="geometry">
            <mxPoint x="767" y="2470" as="targetPoint" />
            <mxPoint x="697" y="2470" as="sourcePoint" />
            <Array as="points">
              <mxPoint x="767" y="2470" />
            </Array>
          </mxGeometry>
        </mxCell>
        <mxCell id="itd64RHTtm4jQYPxFAOI-323" value="ส่ง Error Code 404&amp;nbsp;" style="whiteSpace=wrap;html=1;rounded=1;" vertex="1" parent="1">
          <mxGeometry x="537" y="2450" width="160" height="35" as="geometry" />
        </mxCell>
        <mxCell id="itd64RHTtm4jQYPxFAOI-324" value="" style="edgeStyle=orthogonalEdgeStyle;rounded=0;orthogonalLoop=1;jettySize=auto;html=1;" edge="1" parent="1" source="itd64RHTtm4jQYPxFAOI-320" target="itd64RHTtm4jQYPxFAOI-323">
          <mxGeometry relative="1" as="geometry" />
        </mxCell>
        <mxCell id="itd64RHTtm4jQYPxFAOI-325" value="ไม่ใช่" style="edgeLabel;html=1;align=center;verticalAlign=middle;resizable=0;points=[];" vertex="1" connectable="0" parent="itd64RHTtm4jQYPxFAOI-324">
          <mxGeometry x="-0.0988" y="1" relative="1" as="geometry">
            <mxPoint as="offset" />
          </mxGeometry>
        </mxCell>
        <mxCell id="itd64RHTtm4jQYPxFAOI-326" value="" style="edgeStyle=orthogonalEdgeStyle;rounded=0;orthogonalLoop=1;jettySize=auto;html=1;entryX=0.5;entryY=0;entryDx=0;entryDy=0;" edge="1" parent="1" source="itd64RHTtm4jQYPxFAOI-320" target="itd64RHTtm4jQYPxFAOI-335">
          <mxGeometry relative="1" as="geometry">
            <mxPoint x="407" y="2570" as="targetPoint" />
          </mxGeometry>
        </mxCell>
        <mxCell id="itd64RHTtm4jQYPxFAOI-327" value="ใช่" style="edgeLabel;html=1;align=center;verticalAlign=middle;resizable=0;points=[];" vertex="1" connectable="0" parent="itd64RHTtm4jQYPxFAOI-326">
          <mxGeometry x="-0.232" y="1" relative="1" as="geometry">
            <mxPoint as="offset" />
          </mxGeometry>
        </mxCell>
        <mxCell id="itd64RHTtm4jQYPxFAOI-328" style="edgeStyle=orthogonalEdgeStyle;rounded=0;orthogonalLoop=1;jettySize=auto;html=1;entryX=1;entryY=0.5;entryDx=0;entryDy=0;" edge="1" parent="1" target="itd64RHTtm4jQYPxFAOI-398">
          <mxGeometry relative="1" as="geometry">
            <mxPoint x="787" y="4550" as="targetPoint" />
            <mxPoint x="767" y="2470" as="sourcePoint" />
            <Array as="points">
              <mxPoint x="767" y="5004" />
            </Array>
          </mxGeometry>
        </mxCell>
        <mxCell id="itd64RHTtm4jQYPxFAOI-329" value="" style="endArrow=none;html=1;rounded=0;" edge="1" parent="1">
          <mxGeometry width="50" height="50" relative="1" as="geometry">
            <mxPoint x="767" y="2470" as="sourcePoint" />
            <mxPoint x="807" y="2280" as="targetPoint" />
            <Array as="points">
              <mxPoint x="767" y="2280" />
            </Array>
          </mxGeometry>
        </mxCell>
        <mxCell id="itd64RHTtm4jQYPxFAOI-330" value="" style="edgeStyle=orthogonalEdgeStyle;rounded=0;orthogonalLoop=1;jettySize=auto;html=1;endArrow=classic;endFill=1;" edge="1" parent="1">
          <mxGeometry relative="1" as="geometry">
            <mxPoint x="407" y="2260" as="sourcePoint" />
            <mxPoint x="408.01754385964887" y="2320" as="targetPoint" />
            <Array as="points">
              <mxPoint x="407" y="2320" />
            </Array>
          </mxGeometry>
        </mxCell>
        <mxCell id="itd64RHTtm4jQYPxFAOI-331" style="edgeStyle=orthogonalEdgeStyle;rounded=0;orthogonalLoop=1;jettySize=auto;html=1;endArrow=none;endFill=0;" edge="1" parent="1" source="itd64RHTtm4jQYPxFAOI-332">
          <mxGeometry relative="1" as="geometry">
            <mxPoint x="807" y="2220" as="targetPoint" />
          </mxGeometry>
        </mxCell>
        <mxCell id="itd64RHTtm4jQYPxFAOI-332" value="ส่ง Error Code&amp;nbsp;&lt;span style=&quot;&quot;&gt; &lt;/span&gt;1&amp;nbsp;&amp;nbsp;&lt;br&gt;การยื่นแบบคำร้องยังไม่เปิด / ปิดอยู่" style="whiteSpace=wrap;html=1;rounded=1;" vertex="1" parent="1">
          <mxGeometry x="525.5" y="2196.25" width="201.5" height="47.5" as="geometry" />
        </mxCell>
        <mxCell id="itd64RHTtm4jQYPxFAOI-333" style="edgeStyle=orthogonalEdgeStyle;rounded=0;orthogonalLoop=1;jettySize=auto;html=1;entryX=0;entryY=0.5;entryDx=0;entryDy=0;endArrow=classic;endFill=1;" edge="1" parent="1" source="itd64RHTtm4jQYPxFAOI-314" target="itd64RHTtm4jQYPxFAOI-332">
          <mxGeometry relative="1" as="geometry" />
        </mxCell>
        <mxCell id="itd64RHTtm4jQYPxFAOI-334" value="" style="edgeStyle=orthogonalEdgeStyle;rounded=0;orthogonalLoop=1;jettySize=auto;html=1;endArrow=classic;endFill=1;" edge="1" parent="1" source="itd64RHTtm4jQYPxFAOI-335" target="itd64RHTtm4jQYPxFAOI-338">
          <mxGeometry relative="1" as="geometry" />
        </mxCell>
        <mxCell id="itd64RHTtm4jQYPxFAOI-335" value="นำเลขทะเบียนผู้ถือหุ้นที่ได้จาก table requestTemp ไปตรวจสอบว่า&lt;br&gt;มีการอนุมัติเลขทะเบียนนี้ไปหรือยัง" style="rounded=1;whiteSpace=wrap;html=1;" vertex="1" parent="1">
          <mxGeometry x="303" y="2580" width="210" height="50" as="geometry" />
        </mxCell>
        <mxCell id="itd64RHTtm4jQYPxFAOI-336" style="edgeStyle=orthogonalEdgeStyle;rounded=0;orthogonalLoop=1;jettySize=auto;html=1;endArrow=none;endFill=0;" edge="1" parent="1" source="itd64RHTtm4jQYPxFAOI-339">
          <mxGeometry relative="1" as="geometry">
            <mxPoint x="767" y="2710" as="targetPoint" />
          </mxGeometry>
        </mxCell>
        <mxCell id="itd64RHTtm4jQYPxFAOI-337" style="edgeStyle=orthogonalEdgeStyle;rounded=0;orthogonalLoop=1;jettySize=auto;html=1;endArrow=classic;endFill=1;" edge="1" parent="1" source="itd64RHTtm4jQYPxFAOI-338" target="itd64RHTtm4jQYPxFAOI-343">
          <mxGeometry relative="1" as="geometry">
            <mxPoint x="408" y="2800" as="targetPoint" />
          </mxGeometry>
        </mxCell>
        <mxCell id="itd64RHTtm4jQYPxFAOI-338" value="อนุมัติ ?" style="rhombus;whiteSpace=wrap;html=1;rounded=1;" vertex="1" parent="1">
          <mxGeometry x="368" y="2670" width="80" height="80" as="geometry" />
        </mxCell>
        <mxCell id="itd64RHTtm4jQYPxFAOI-339" value="ส่ง Error Code 4 มีการใช้งานผู้ถือหุ้นนี้ในระบบ" style="whiteSpace=wrap;html=1;rounded=1;" vertex="1" parent="1">
          <mxGeometry x="558" y="2680" width="120" height="60" as="geometry" />
        </mxCell>
        <mxCell id="itd64RHTtm4jQYPxFAOI-340" value="ใช่" style="edgeStyle=orthogonalEdgeStyle;rounded=0;orthogonalLoop=1;jettySize=auto;html=1;" edge="1" parent="1" source="itd64RHTtm4jQYPxFAOI-338" target="itd64RHTtm4jQYPxFAOI-339">
          <mxGeometry relative="1" as="geometry" />
        </mxCell>
        <mxCell id="itd64RHTtm4jQYPxFAOI-341" value="ไม่ใช่" style="edgeLabel;html=1;align=center;verticalAlign=middle;resizable=0;points=[];" vertex="1" connectable="0" parent="1">
          <mxGeometry x="408" y="2770.263157894737" as="geometry" />
        </mxCell>
        <mxCell id="itd64RHTtm4jQYPxFAOI-342" value="" style="edgeStyle=orthogonalEdgeStyle;rounded=0;orthogonalLoop=1;jettySize=auto;html=1;endArrow=classic;endFill=1;" edge="1" parent="1" source="itd64RHTtm4jQYPxFAOI-343" target="itd64RHTtm4jQYPxFAOI-348">
          <mxGeometry relative="1" as="geometry" />
        </mxCell>
        <mxCell id="itd64RHTtm4jQYPxFAOI-343" value="ตรวจสอบข้อมูล&amp;nbsp;&lt;br&gt;parameter in : RequestRef&lt;br&gt;ว่ามีการเลือกข้อมูลที่มีอยู่เเล้วหรือไม่" style="rounded=1;whiteSpace=wrap;html=1;" vertex="1" parent="1">
          <mxGeometry x="315.25" y="2810" width="183.5" height="60" as="geometry" />
        </mxCell>
        <mxCell id="itd64RHTtm4jQYPxFAOI-344" value="" style="edgeStyle=orthogonalEdgeStyle;rounded=0;orthogonalLoop=1;jettySize=auto;html=1;endArrow=classic;endFill=1;" edge="1" parent="1" source="itd64RHTtm4jQYPxFAOI-348" target="itd64RHTtm4jQYPxFAOI-350">
          <mxGeometry relative="1" as="geometry" />
        </mxCell>
        <mxCell id="itd64RHTtm4jQYPxFAOI-345" value="ใช่" style="edgeLabel;html=1;align=center;verticalAlign=middle;resizable=0;points=[];" vertex="1" connectable="0" parent="itd64RHTtm4jQYPxFAOI-344">
          <mxGeometry x="-0.0723" y="-3" relative="1" as="geometry">
            <mxPoint as="offset" />
          </mxGeometry>
        </mxCell>
        <mxCell id="itd64RHTtm4jQYPxFAOI-346" value="" style="edgeStyle=orthogonalEdgeStyle;rounded=0;orthogonalLoop=1;jettySize=auto;html=1;endArrow=classic;endFill=1;entryX=0.5;entryY=0;entryDx=0;entryDy=0;" edge="1" parent="1" source="itd64RHTtm4jQYPxFAOI-348" target="itd64RHTtm4jQYPxFAOI-401">
          <mxGeometry relative="1" as="geometry">
            <mxPoint x="566.25" y="2954.4285714285716" as="targetPoint" />
          </mxGeometry>
        </mxCell>
        <mxCell id="itd64RHTtm4jQYPxFAOI-347" value="ไม่ใช่" style="edgeLabel;html=1;align=center;verticalAlign=middle;resizable=0;points=[];" vertex="1" connectable="0" parent="itd64RHTtm4jQYPxFAOI-346">
          <mxGeometry x="-0.2971" y="2" relative="1" as="geometry">
            <mxPoint x="7" y="2" as="offset" />
          </mxGeometry>
        </mxCell>
        <mxCell id="itd64RHTtm4jQYPxFAOI-348" value="มี ?" style="rhombus;whiteSpace=wrap;html=1;rounded=1;" vertex="1" parent="1">
          <mxGeometry x="367" y="2915" width="80" height="80" as="geometry" />
        </mxCell>
        <mxCell id="itd64RHTtm4jQYPxFAOI-349" value="" style="edgeStyle=orthogonalEdgeStyle;rounded=0;orthogonalLoop=1;jettySize=auto;html=1;endArrow=classic;endFill=1;" edge="1" parent="1" source="itd64RHTtm4jQYPxFAOI-350" target="itd64RHTtm4jQYPxFAOI-354">
          <mxGeometry relative="1" as="geometry" />
        </mxCell>
        <mxCell id="itd64RHTtm4jQYPxFAOI-350" value="ค้นหาข้อมูลใน&lt;br&gt;Table RequestTemp ที่&lt;br&gt;parameter in : RequestRef ตรงกันกับ requestId&amp;nbsp;" style="whiteSpace=wrap;html=1;rounded=1;" vertex="1" parent="1">
          <mxGeometry x="147" y="2912" width="160" height="85" as="geometry" />
        </mxCell>
        <mxCell id="itd64RHTtm4jQYPxFAOI-351" value="" style="edgeStyle=orthogonalEdgeStyle;rounded=0;orthogonalLoop=1;jettySize=auto;html=1;endArrow=classic;endFill=1;" edge="1" parent="1" source="itd64RHTtm4jQYPxFAOI-354" target="itd64RHTtm4jQYPxFAOI-356">
          <mxGeometry relative="1" as="geometry" />
        </mxCell>
        <mxCell id="itd64RHTtm4jQYPxFAOI-352" value="ไม่ใช่" style="edgeLabel;html=1;align=center;verticalAlign=middle;resizable=0;points=[];" vertex="1" connectable="0" parent="itd64RHTtm4jQYPxFAOI-351">
          <mxGeometry x="-0.1413" relative="1" as="geometry">
            <mxPoint as="offset" />
          </mxGeometry>
        </mxCell>
        <mxCell id="itd64RHTtm4jQYPxFAOI-353" value="" style="edgeStyle=orthogonalEdgeStyle;rounded=0;orthogonalLoop=1;jettySize=auto;html=1;endArrow=classic;endFill=1;" edge="1" parent="1" source="itd64RHTtm4jQYPxFAOI-354" target="itd64RHTtm4jQYPxFAOI-367">
          <mxGeometry relative="1" as="geometry" />
        </mxCell>
        <mxCell id="itd64RHTtm4jQYPxFAOI-354" value="มี ?" style="rhombus;whiteSpace=wrap;html=1;rounded=1;" vertex="1" parent="1">
          <mxGeometry x="187" y="3040" width="80" height="80" as="geometry" />
        </mxCell>
        <mxCell id="itd64RHTtm4jQYPxFAOI-355" style="edgeStyle=orthogonalEdgeStyle;rounded=0;orthogonalLoop=1;jettySize=auto;html=1;entryX=0;entryY=0.5;entryDx=0;entryDy=0;endArrow=classic;endFill=1;" edge="1" parent="1" source="itd64RHTtm4jQYPxFAOI-356" target="itd64RHTtm4jQYPxFAOI-398">
          <mxGeometry relative="1" as="geometry">
            <Array as="points">
              <mxPoint x="78" y="5004" />
            </Array>
          </mxGeometry>
        </mxCell>
        <mxCell id="itd64RHTtm4jQYPxFAOI-356" value="Error code 404&amp;nbsp;" style="whiteSpace=wrap;html=1;rounded=1;" vertex="1" parent="1">
          <mxGeometry x="18" y="3050" width="120" height="60" as="geometry" />
        </mxCell>
        <mxCell id="itd64RHTtm4jQYPxFAOI-357" value="UpdateRequestForm" style="text;html=1;align=center;verticalAlign=middle;resizable=0;points=[];autosize=1;strokeColor=none;fillColor=none;" vertex="1" parent="1">
          <mxGeometry x="662" y="45" width="130" height="30" as="geometry" />
        </mxCell>
        <mxCell id="itd64RHTtm4jQYPxFAOI-358" value="นำข้อมูล อีเมล์ เบอร์โทรศัพท์&amp;nbsp; เเละเลขทะเบียนผู้ถือหุ้นใน request temp ที่ต้องการสร้าง มาตรวจสอบความซ้ำซ้อนว่ามีเเล้วใน Table Request เเล้วหรือยัง&amp;nbsp;" style="whiteSpace=wrap;html=1;rounded=1;" vertex="1" parent="1">
          <mxGeometry x="261.5" y="3680" width="227.5" height="80" as="geometry" />
        </mxCell>
        <mxCell id="itd64RHTtm4jQYPxFAOI-359" value="ไม่ใช่" style="edgeStyle=orthogonalEdgeStyle;rounded=0;orthogonalLoop=1;jettySize=auto;html=1;endArrow=classic;endFill=1;entryX=0.5;entryY=0;entryDx=0;entryDy=0;" edge="1" parent="1" source="itd64RHTtm4jQYPxFAOI-360">
          <mxGeometry relative="1" as="geometry">
            <mxPoint x="375.2499999999998" y="3940" as="targetPoint" />
          </mxGeometry>
        </mxCell>
        <mxCell id="itd64RHTtm4jQYPxFAOI-360" value="ซ้ำซ้อน ?" style="rhombus;whiteSpace=wrap;html=1;rounded=1;" vertex="1" parent="1">
          <mxGeometry x="335.25" y="3790" width="80" height="80" as="geometry" />
        </mxCell>
        <mxCell id="itd64RHTtm4jQYPxFAOI-361" value="" style="edgeStyle=orthogonalEdgeStyle;rounded=0;orthogonalLoop=1;jettySize=auto;html=1;endArrow=classic;endFill=1;" edge="1" parent="1" source="itd64RHTtm4jQYPxFAOI-358" target="itd64RHTtm4jQYPxFAOI-360">
          <mxGeometry relative="1" as="geometry" />
        </mxCell>
        <mxCell id="itd64RHTtm4jQYPxFAOI-362" style="edgeStyle=orthogonalEdgeStyle;rounded=0;orthogonalLoop=1;jettySize=auto;html=1;endArrow=none;endFill=0;" edge="1" parent="1" source="itd64RHTtm4jQYPxFAOI-363">
          <mxGeometry relative="1" as="geometry">
            <mxPoint x="767" y="3830" as="targetPoint" />
          </mxGeometry>
        </mxCell>
        <mxCell id="itd64RHTtm4jQYPxFAOI-363" value="Error code 3 มีการยื่นเอกสารซ้ำซ้อน" style="whiteSpace=wrap;html=1;rounded=1;" vertex="1" parent="1">
          <mxGeometry x="525.5" y="3800" width="120" height="60" as="geometry" />
        </mxCell>
        <mxCell id="itd64RHTtm4jQYPxFAOI-364" value="" style="edgeStyle=orthogonalEdgeStyle;rounded=0;orthogonalLoop=1;jettySize=auto;html=1;endArrow=classic;endFill=1;" edge="1" parent="1" source="itd64RHTtm4jQYPxFAOI-360" target="itd64RHTtm4jQYPxFAOI-363">
          <mxGeometry relative="1" as="geometry" />
        </mxCell>
        <mxCell id="itd64RHTtm4jQYPxFAOI-365" value="ใช่" style="edgeLabel;html=1;align=center;verticalAlign=middle;resizable=0;points=[];" vertex="1" connectable="0" parent="itd64RHTtm4jQYPxFAOI-364">
          <mxGeometry x="-0.1386" relative="1" as="geometry">
            <mxPoint as="offset" />
          </mxGeometry>
        </mxCell>
        <mxCell id="itd64RHTtm4jQYPxFAOI-366" style="edgeStyle=orthogonalEdgeStyle;rounded=0;orthogonalLoop=1;jettySize=auto;html=1;entryX=0;entryY=0.5;entryDx=0;entryDy=0;endArrow=classic;endFill=1;" edge="1" parent="1" source="itd64RHTtm4jQYPxFAOI-367" target="itd64RHTtm4jQYPxFAOI-358">
          <mxGeometry relative="1" as="geometry" />
        </mxCell>
        <mxCell id="itd64RHTtm4jQYPxFAOI-367" value="นำข้อมูลอีเมล์ เบอร์โทรศัพท์ที่ได้จากการอ้างอิงมาตรวจสอบ" style="whiteSpace=wrap;html=1;rounded=1;" vertex="1" parent="1">
          <mxGeometry x="167" y="3580" width="120" height="60" as="geometry" />
        </mxCell>
        <mxCell id="itd64RHTtm4jQYPxFAOI-368" style="edgeStyle=orthogonalEdgeStyle;rounded=0;orthogonalLoop=1;jettySize=auto;html=1;entryX=1;entryY=0.5;entryDx=0;entryDy=0;endArrow=classic;endFill=1;" edge="1" parent="1" source="itd64RHTtm4jQYPxFAOI-406" target="itd64RHTtm4jQYPxFAOI-358">
          <mxGeometry relative="1" as="geometry">
            <Array as="points">
              <mxPoint x="687" y="3720" />
            </Array>
          </mxGeometry>
        </mxCell>
        <mxCell id="itd64RHTtm4jQYPxFAOI-369" value="ล้างข้อมูล verifyToken ใน Request temp ที่ต้องการสร้าง&amp;nbsp;" style="whiteSpace=wrap;html=1;rounded=1;" vertex="1" parent="1">
          <mxGeometry x="317" y="3940" width="120" height="60" as="geometry" />
        </mxCell>
        <mxCell id="itd64RHTtm4jQYPxFAOI-370" value="เพิ่มข้อมูล request temp ลงใน table Request" style="rounded=1;whiteSpace=wrap;html=1;" vertex="1" parent="1">
          <mxGeometry x="287" y="4040" width="180" height="50" as="geometry" />
        </mxCell>
        <mxCell id="itd64RHTtm4jQYPxFAOI-371" value="" style="edgeStyle=orthogonalEdgeStyle;rounded=0;orthogonalLoop=1;jettySize=auto;html=1;endArrow=classic;endFill=1;" edge="1" parent="1" source="itd64RHTtm4jQYPxFAOI-369" target="itd64RHTtm4jQYPxFAOI-370">
          <mxGeometry relative="1" as="geometry" />
        </mxCell>
        <mxCell id="itd64RHTtm4jQYPxFAOI-372" value="อัพโหลดไฟล์แนบ" style="whiteSpace=wrap;html=1;rounded=1;" vertex="1" parent="1">
          <mxGeometry x="317" y="4144" width="120" height="60" as="geometry" />
        </mxCell>
        <mxCell id="itd64RHTtm4jQYPxFAOI-373" value="" style="edgeStyle=orthogonalEdgeStyle;rounded=0;orthogonalLoop=1;jettySize=auto;html=1;endArrow=classic;endFill=1;" edge="1" parent="1" source="itd64RHTtm4jQYPxFAOI-370" target="itd64RHTtm4jQYPxFAOI-372">
          <mxGeometry relative="1" as="geometry" />
        </mxCell>
        <mxCell id="itd64RHTtm4jQYPxFAOI-374" value="สำเร็จ ?" style="rhombus;whiteSpace=wrap;html=1;rounded=1;" vertex="1" parent="1">
          <mxGeometry x="337" y="4264" width="80" height="80" as="geometry" />
        </mxCell>
        <mxCell id="itd64RHTtm4jQYPxFAOI-375" value="" style="edgeStyle=orthogonalEdgeStyle;rounded=0;orthogonalLoop=1;jettySize=auto;html=1;" edge="1" parent="1" source="itd64RHTtm4jQYPxFAOI-372" target="itd64RHTtm4jQYPxFAOI-374">
          <mxGeometry relative="1" as="geometry" />
        </mxCell>
        <mxCell id="itd64RHTtm4jQYPxFAOI-376" style="edgeStyle=orthogonalEdgeStyle;rounded=0;orthogonalLoop=1;jettySize=auto;html=1;entryX=0;entryY=0.5;entryDx=0;entryDy=0;exitX=0;exitY=0.5;exitDx=0;exitDy=0;" edge="1" parent="1" source="itd64RHTtm4jQYPxFAOI-385" target="itd64RHTtm4jQYPxFAOI-372">
          <mxGeometry relative="1" as="geometry">
            <Array as="points">
              <mxPoint x="267" y="4524" />
              <mxPoint x="267" y="4174" />
            </Array>
          </mxGeometry>
        </mxCell>
        <mxCell id="itd64RHTtm4jQYPxFAOI-377" value="ใช่" style="edgeLabel;html=1;align=center;verticalAlign=middle;resizable=0;points=[];" vertex="1" connectable="0" parent="itd64RHTtm4jQYPxFAOI-376">
          <mxGeometry x="-0.8049" relative="1" as="geometry">
            <mxPoint x="14" as="offset" />
          </mxGeometry>
        </mxCell>
        <mxCell id="itd64RHTtm4jQYPxFAOI-378" value="ตรวจสอบว่ามีไฟลอีกหรือไม่" style="whiteSpace=wrap;html=1;rounded=1;" vertex="1" parent="1">
          <mxGeometry x="317" y="4394" width="120" height="60" as="geometry" />
        </mxCell>
        <mxCell id="itd64RHTtm4jQYPxFAOI-379" value="" style="edgeStyle=orthogonalEdgeStyle;rounded=0;orthogonalLoop=1;jettySize=auto;html=1;" edge="1" parent="1" source="itd64RHTtm4jQYPxFAOI-374" target="itd64RHTtm4jQYPxFAOI-378">
          <mxGeometry relative="1" as="geometry" />
        </mxCell>
        <mxCell id="itd64RHTtm4jQYPxFAOI-380" value="ใช่" style="edgeLabel;html=1;align=center;verticalAlign=middle;resizable=0;points=[];" vertex="1" connectable="0" parent="itd64RHTtm4jQYPxFAOI-379">
          <mxGeometry x="-0.1535" y="1" relative="1" as="geometry">
            <mxPoint as="offset" />
          </mxGeometry>
        </mxCell>
        <mxCell id="itd64RHTtm4jQYPxFAOI-381" style="edgeStyle=orthogonalEdgeStyle;rounded=0;orthogonalLoop=1;jettySize=auto;html=1;endArrow=none;endFill=0;" edge="1" parent="1" source="itd64RHTtm4jQYPxFAOI-382">
          <mxGeometry relative="1" as="geometry">
            <mxPoint x="769" y="4304" as="targetPoint" />
          </mxGeometry>
        </mxCell>
        <mxCell id="itd64RHTtm4jQYPxFAOI-382" value="ส่ง Error Code&amp;nbsp;&lt;span style=&quot;white-space: pre;&quot;&gt; &lt;/span&gt;1&amp;nbsp;&amp;nbsp;&lt;br&gt;อัพโหลดไฟล์ไม่สำเร็จ" style="whiteSpace=wrap;html=1;rounded=1;" vertex="1" parent="1">
          <mxGeometry x="507" y="4287.25" width="160" height="33.5" as="geometry" />
        </mxCell>
        <mxCell id="itd64RHTtm4jQYPxFAOI-383" value="" style="edgeStyle=orthogonalEdgeStyle;rounded=0;orthogonalLoop=1;jettySize=auto;html=1;" edge="1" parent="1" source="itd64RHTtm4jQYPxFAOI-374" target="itd64RHTtm4jQYPxFAOI-382">
          <mxGeometry relative="1" as="geometry" />
        </mxCell>
        <mxCell id="itd64RHTtm4jQYPxFAOI-384" value="ไม่ใช่" style="edgeLabel;html=1;align=center;verticalAlign=middle;resizable=0;points=[];" vertex="1" connectable="0" parent="itd64RHTtm4jQYPxFAOI-383">
          <mxGeometry x="-0.0214" y="2" relative="1" as="geometry">
            <mxPoint as="offset" />
          </mxGeometry>
        </mxCell>
        <mxCell id="itd64RHTtm4jQYPxFAOI-385" value="มี ?" style="rhombus;whiteSpace=wrap;html=1;rounded=1;" vertex="1" parent="1">
          <mxGeometry x="337" y="4484" width="80" height="80" as="geometry" />
        </mxCell>
        <mxCell id="itd64RHTtm4jQYPxFAOI-386" value="" style="edgeStyle=orthogonalEdgeStyle;rounded=0;orthogonalLoop=1;jettySize=auto;html=1;" edge="1" parent="1" source="itd64RHTtm4jQYPxFAOI-378" target="itd64RHTtm4jQYPxFAOI-385">
          <mxGeometry relative="1" as="geometry" />
        </mxCell>
        <mxCell id="itd64RHTtm4jQYPxFAOI-387" value="ไม่ใช่" style="edgeStyle=orthogonalEdgeStyle;rounded=0;orthogonalLoop=1;jettySize=auto;html=1;entryX=0.5;entryY=0;entryDx=0;entryDy=0;" edge="1" parent="1" source="itd64RHTtm4jQYPxFAOI-385" target="itd64RHTtm4jQYPxFAOI-388">
          <mxGeometry relative="1" as="geometry">
            <mxPoint x="377.4615384615381" y="4614" as="targetPoint" />
          </mxGeometry>
        </mxCell>
        <mxCell id="itd64RHTtm4jQYPxFAOI-388" value="บันทึกข้อมูล" style="whiteSpace=wrap;html=1;rounded=1;" vertex="1" parent="1">
          <mxGeometry x="317.25" y="4634" width="120" height="60" as="geometry" />
        </mxCell>
        <mxCell id="itd64RHTtm4jQYPxFAOI-389" value="สำเร็จ ?" style="rhombus;whiteSpace=wrap;html=1;rounded=1;" vertex="1" parent="1">
          <mxGeometry x="337.25" y="4724" width="80" height="80" as="geometry" />
        </mxCell>
        <mxCell id="itd64RHTtm4jQYPxFAOI-390" value="" style="edgeStyle=orthogonalEdgeStyle;rounded=0;orthogonalLoop=1;jettySize=auto;html=1;" edge="1" parent="1" source="itd64RHTtm4jQYPxFAOI-388" target="itd64RHTtm4jQYPxFAOI-389">
          <mxGeometry relative="1" as="geometry" />
        </mxCell>
        <mxCell id="itd64RHTtm4jQYPxFAOI-391" style="edgeStyle=orthogonalEdgeStyle;rounded=0;orthogonalLoop=1;jettySize=auto;html=1;endArrow=none;endFill=0;" edge="1" parent="1" source="itd64RHTtm4jQYPxFAOI-392">
          <mxGeometry relative="1" as="geometry">
            <mxPoint x="767" y="4764" as="targetPoint" />
          </mxGeometry>
        </mxCell>
        <mxCell id="itd64RHTtm4jQYPxFAOI-392" value="ส่ง Error Code 500" style="whiteSpace=wrap;html=1;rounded=1;" vertex="1" parent="1">
          <mxGeometry x="531.75" y="4734" width="120" height="60" as="geometry" />
        </mxCell>
        <mxCell id="itd64RHTtm4jQYPxFAOI-393" value="" style="edgeStyle=orthogonalEdgeStyle;rounded=0;orthogonalLoop=1;jettySize=auto;html=1;" edge="1" parent="1" source="itd64RHTtm4jQYPxFAOI-389" target="itd64RHTtm4jQYPxFAOI-392">
          <mxGeometry relative="1" as="geometry" />
        </mxCell>
        <mxCell id="itd64RHTtm4jQYPxFAOI-394" value="ไม่ใช่" style="edgeLabel;html=1;align=center;verticalAlign=middle;resizable=0;points=[];" vertex="1" connectable="0" parent="itd64RHTtm4jQYPxFAOI-393">
          <mxGeometry x="-0.0823" y="-3" relative="1" as="geometry">
            <mxPoint y="-3" as="offset" />
          </mxGeometry>
        </mxCell>
        <mxCell id="itd64RHTtm4jQYPxFAOI-395" value="ส่งกลับข้อมูลผู้ถือหุ้นที่บันทึกสำเร็จเเล้ว" style="whiteSpace=wrap;html=1;rounded=1;" vertex="1" parent="1">
          <mxGeometry x="317" y="4884" width="120" height="60" as="geometry" />
        </mxCell>
        <mxCell id="itd64RHTtm4jQYPxFAOI-396" style="edgeStyle=orthogonalEdgeStyle;rounded=0;orthogonalLoop=1;jettySize=auto;html=1;" edge="1" parent="1" source="itd64RHTtm4jQYPxFAOI-389" target="itd64RHTtm4jQYPxFAOI-395">
          <mxGeometry relative="1" as="geometry">
            <mxPoint x="377.25" y="4834" as="targetPoint" />
          </mxGeometry>
        </mxCell>
        <mxCell id="itd64RHTtm4jQYPxFAOI-397" value="ใช่" style="edgeLabel;html=1;align=center;verticalAlign=middle;resizable=0;points=[];" vertex="1" connectable="0" parent="itd64RHTtm4jQYPxFAOI-396">
          <mxGeometry x="-0.12" y="-2" relative="1" as="geometry">
            <mxPoint as="offset" />
          </mxGeometry>
        </mxCell>
        <mxCell id="itd64RHTtm4jQYPxFAOI-398" value="สิ้นสุด" style="ellipse;whiteSpace=wrap;html=1;rounded=1;" vertex="1" parent="1">
          <mxGeometry x="317.25" y="4974" width="120" height="60" as="geometry" />
        </mxCell>
        <mxCell id="itd64RHTtm4jQYPxFAOI-399" value="" style="edgeStyle=orthogonalEdgeStyle;rounded=0;orthogonalLoop=1;jettySize=auto;html=1;" edge="1" parent="1" source="itd64RHTtm4jQYPxFAOI-395" target="itd64RHTtm4jQYPxFAOI-398">
          <mxGeometry relative="1" as="geometry" />
        </mxCell>
        <mxCell id="itd64RHTtm4jQYPxFAOI-400" style="edgeStyle=orthogonalEdgeStyle;rounded=0;orthogonalLoop=1;jettySize=auto;html=1;endArrow=classic;endFill=1;exitX=0.5;exitY=1;exitDx=0;exitDy=0;" edge="1" parent="1" source="itd64RHTtm4jQYPxFAOI-405" target="itd64RHTtm4jQYPxFAOI-358">
          <mxGeometry relative="1" as="geometry">
            <Array as="points">
              <mxPoint x="462" y="3660" />
              <mxPoint x="462" y="3660" />
            </Array>
          </mxGeometry>
        </mxCell>
        <mxCell id="itd64RHTtm4jQYPxFAOI-401" value="&lt;div style=&quot;text-align: left;&quot;&gt;&lt;span style=&quot;background-color: initial;&quot;&gt;ตรวจสอบว่ามีข้อมูล&lt;/span&gt;&lt;/div&gt;&lt;p style=&quot;margin: 0px; font-variant-numeric: normal; font-variant-east-asian: normal; font-stretch: normal; font-size: 13px; line-height: normal; font-family: &amp;quot;Helvetica Neue&amp;quot;; text-align: start;&quot; class=&quot;p1&quot;&gt;1. proxyName&lt;span class=&quot;Apple-converted-space&quot;&gt;&amp;nbsp;&lt;/span&gt;&lt;/p&gt;&lt;p style=&quot;margin: 0px; font-variant-numeric: normal; font-variant-east-asian: normal; font-stretch: normal; font-size: 13px; line-height: normal; font-family: &amp;quot;Helvetica Neue&amp;quot;; text-align: start;&quot; class=&quot;p1&quot;&gt;2. proxyCitizenID&lt;/p&gt;&lt;p style=&quot;margin: 0px; font-variant-numeric: normal; font-variant-east-asian: normal; font-stretch: normal; font-size: 13px; line-height: normal; font-family: &amp;quot;Helvetica Neue&amp;quot;; text-align: start;&quot; class=&quot;p1&quot;&gt;3. proxyEmail&lt;span class=&quot;Apple-converted-space&quot;&gt;&amp;nbsp;&lt;/span&gt;&lt;/p&gt;&lt;span style=&quot;font-family: &amp;quot;Helvetica Neue&amp;quot;; font-size: 13px; background-color: initial;&quot;&gt;&lt;div style=&quot;text-align: left;&quot;&gt;&lt;span style=&quot;background-color: initial;&quot;&gt;4. proxyTel&lt;/span&gt;&lt;/div&gt;&lt;/span&gt;การรับมอบฉันทะหรือไม่" style="whiteSpace=wrap;html=1;rounded=1;" vertex="1" parent="1">
          <mxGeometry x="509.25" y="2980" width="170" height="118" as="geometry" />
        </mxCell>
        <mxCell id="itd64RHTtm4jQYPxFAOI-402" value="" style="edgeStyle=orthogonalEdgeStyle;rounded=0;orthogonalLoop=1;jettySize=auto;html=1;endArrow=classic;endFill=1;" edge="1" parent="1" source="itd64RHTtm4jQYPxFAOI-403" target="itd64RHTtm4jQYPxFAOI-409">
          <mxGeometry relative="1" as="geometry" />
        </mxCell>
        <mxCell id="itd64RHTtm4jQYPxFAOI-403" value="มี ?" style="rhombus;whiteSpace=wrap;html=1;rounded=1;" vertex="1" parent="1">
          <mxGeometry x="561.5" y="3130" width="65.5" height="60" as="geometry" />
        </mxCell>
        <mxCell id="itd64RHTtm4jQYPxFAOI-404" value="" style="edgeStyle=orthogonalEdgeStyle;rounded=0;orthogonalLoop=1;jettySize=auto;html=1;endArrow=classic;endFill=1;" edge="1" parent="1" source="itd64RHTtm4jQYPxFAOI-401" target="itd64RHTtm4jQYPxFAOI-403">
          <mxGeometry relative="1" as="geometry" />
        </mxCell>
        <mxCell id="itd64RHTtm4jQYPxFAOI-405" value="นำข้อมูลอีเมล์ เบอร์โทรศัพท์ของผู้รับมอบฉันทะมาตรวจสอบ" style="whiteSpace=wrap;html=1;rounded=1;" vertex="1" parent="1">
          <mxGeometry x="401.5" y="3570" width="120" height="60" as="geometry" />
        </mxCell>
        <mxCell id="itd64RHTtm4jQYPxFAOI-406" value="นำข้อมูลอีเมล์ เบอร์โทรศัพท์ที่ยื่นมาตรวจสอบ" style="whiteSpace=wrap;html=1;rounded=1;" vertex="1" parent="1">
          <mxGeometry x="627" y="3240" width="120" height="60" as="geometry" />
        </mxCell>
        <mxCell id="itd64RHTtm4jQYPxFAOI-407" style="edgeStyle=orthogonalEdgeStyle;rounded=0;orthogonalLoop=1;jettySize=auto;html=1;endArrow=classic;endFill=1;" edge="1" parent="1" source="itd64RHTtm4jQYPxFAOI-403" target="itd64RHTtm4jQYPxFAOI-406">
          <mxGeometry relative="1" as="geometry">
            <Array as="points">
              <mxPoint x="687" y="3160" />
            </Array>
          </mxGeometry>
        </mxCell>
        <mxCell id="itd64RHTtm4jQYPxFAOI-408" value="" style="edgeStyle=orthogonalEdgeStyle;rounded=0;orthogonalLoop=1;jettySize=auto;html=1;endArrow=classic;endFill=1;" edge="1" parent="1" source="itd64RHTtm4jQYPxFAOI-409" target="itd64RHTtm4jQYPxFAOI-412">
          <mxGeometry relative="1" as="geometry" />
        </mxCell>
        <mxCell id="itd64RHTtm4jQYPxFAOI-409" value="ตรวจสอบประเภทแบบคำร้อง จาก Paramter in : requestTypeเป็นประเภทมอบฉันทะนิติบุคคลหรือไม่" style="whiteSpace=wrap;html=1;rounded=1;" vertex="1" parent="1">
          <mxGeometry x="328.5" y="3120" width="177" height="80" as="geometry" />
        </mxCell>
        <mxCell id="itd64RHTtm4jQYPxFAOI-410" style="edgeStyle=orthogonalEdgeStyle;rounded=0;orthogonalLoop=1;jettySize=auto;html=1;entryX=0;entryY=0.5;entryDx=0;entryDy=0;endArrow=classic;endFill=1;" edge="1" parent="1" source="itd64RHTtm4jQYPxFAOI-412" target="itd64RHTtm4jQYPxFAOI-405">
          <mxGeometry relative="1" as="geometry">
            <Array as="points">
              <mxPoint x="297" y="3270" />
              <mxPoint x="297" y="3600" />
            </Array>
          </mxGeometry>
        </mxCell>
        <mxCell id="itd64RHTtm4jQYPxFAOI-411" value="" style="edgeStyle=orthogonalEdgeStyle;rounded=0;orthogonalLoop=1;jettySize=auto;html=1;endArrow=classic;endFill=1;" edge="1" parent="1" source="itd64RHTtm4jQYPxFAOI-412" target="itd64RHTtm4jQYPxFAOI-414">
          <mxGeometry relative="1" as="geometry" />
        </mxCell>
        <mxCell id="itd64RHTtm4jQYPxFAOI-412" value="2 ?" style="rhombus;whiteSpace=wrap;html=1;rounded=1;" vertex="1" parent="1">
          <mxGeometry x="377" y="3230" width="80" height="80" as="geometry" />
        </mxCell>
        <mxCell id="itd64RHTtm4jQYPxFAOI-413" value="" style="edgeStyle=orthogonalEdgeStyle;rounded=0;orthogonalLoop=1;jettySize=auto;html=1;endArrow=classic;endFill=1;" edge="1" parent="1" source="itd64RHTtm4jQYPxFAOI-414" target="itd64RHTtm4jQYPxFAOI-416">
          <mxGeometry relative="1" as="geometry" />
        </mxCell>
        <mxCell id="itd64RHTtm4jQYPxFAOI-414" value="ทำการตรวจสอบข้อมูลผู้ถือหุ้นด้วยข้อมูล&amp;nbsp; ใน Table Shareholder ว่า HolderType เป็นผู้ถือหุ้นที่เป็นประเภทนิติบุคคล , นิติบุคคลต่างชาติหรือไม่" style="whiteSpace=wrap;html=1;rounded=1;" vertex="1" parent="1">
          <mxGeometry x="322" y="3350" width="190" height="80" as="geometry" />
        </mxCell>
        <mxCell id="itd64RHTtm4jQYPxFAOI-415" style="edgeStyle=orthogonalEdgeStyle;rounded=0;orthogonalLoop=1;jettySize=auto;html=1;entryX=0.5;entryY=0;entryDx=0;entryDy=0;endArrow=classic;endFill=1;" edge="1" parent="1" source="itd64RHTtm4jQYPxFAOI-416" target="itd64RHTtm4jQYPxFAOI-405">
          <mxGeometry relative="1" as="geometry" />
        </mxCell>
        <mxCell id="itd64RHTtm4jQYPxFAOI-416" value="0 หรือ 2" style="rhombus;whiteSpace=wrap;html=1;rounded=1;" vertex="1" parent="1">
          <mxGeometry x="377" y="3450" width="80" height="80" as="geometry" />
        </mxCell>
        <mxCell id="itd64RHTtm4jQYPxFAOI-417" style="edgeStyle=orthogonalEdgeStyle;rounded=0;orthogonalLoop=1;jettySize=auto;html=1;endArrow=none;endFill=0;" edge="1" parent="1" source="itd64RHTtm4jQYPxFAOI-418">
          <mxGeometry relative="1" as="geometry">
            <mxPoint x="767" y="3490" as="targetPoint" />
            <Array as="points">
              <mxPoint x="767" y="3490" />
            </Array>
          </mxGeometry>
        </mxCell>
        <mxCell id="itd64RHTtm4jQYPxFAOI-418" value="" style="shape=requiredInterface;html=1;verticalLabelPosition=bottom;sketch=0;direction=north;" vertex="1" parent="1">
          <mxGeometry x="677" y="3480" width="20" height="10" as="geometry" />
        </mxCell>
        <mxCell id="itd64RHTtm4jQYPxFAOI-419" style="edgeStyle=orthogonalEdgeStyle;rounded=0;orthogonalLoop=1;jettySize=auto;html=1;endArrow=none;endFill=0;" edge="1" parent="1" source="itd64RHTtm4jQYPxFAOI-420">
          <mxGeometry relative="1" as="geometry">
            <mxPoint x="677" y="3490" as="targetPoint" />
          </mxGeometry>
        </mxCell>
        <mxCell id="itd64RHTtm4jQYPxFAOI-420" value="Error code 5 ประเภทเอกสารไม่ถูกต้อง" style="rounded=1;whiteSpace=wrap;html=1;" vertex="1" parent="1">
          <mxGeometry x="517" y="3470" width="120" height="40" as="geometry" />
        </mxCell>
        <mxCell id="itd64RHTtm4jQYPxFAOI-421" value="" style="edgeStyle=orthogonalEdgeStyle;rounded=0;orthogonalLoop=1;jettySize=auto;html=1;endArrow=classic;endFill=1;" edge="1" parent="1" source="itd64RHTtm4jQYPxFAOI-416" target="itd64RHTtm4jQYPxFAOI-420">
          <mxGeometry relative="1" as="geometry" />
        </mxCell>
        <mxCell id="itd64RHTtm4jQYPxFAOI-422" value="ไม่ใช่" style="edgeLabel;html=1;align=center;verticalAlign=middle;resizable=0;points=[];" vertex="1" connectable="0" parent="itd64RHTtm4jQYPxFAOI-421">
          <mxGeometry x="-0.2667" relative="1" as="geometry">
            <mxPoint as="offset" />
          </mxGeometry>
        </mxCell>
      </root>
    </mxGraphModel>
  </diagram>
  <diagram id="gcOZ_6tC0jaYasazlIRs" name="หน้า-2">
    <mxGraphModel dx="1296" dy="670" grid="1" gridSize="10" guides="1" tooltips="1" connect="1" arrows="1" fold="1" page="1" pageScale="1" pageWidth="827" pageHeight="1169" math="0" shadow="0">
      <root>
        <mxCell id="0" />
        <mxCell id="1" parent="0" />
        <mxCell id="btwDwO-bh5UdA42NUkLC-1" value="" style="group" vertex="1" connectable="0" parent="1">
          <mxGeometry x="70" y="40" width="620" height="2280" as="geometry" />
        </mxCell>
        <mxCell id="btwDwO-bh5UdA42NUkLC-2" value="ค้นหาข้อมูลใน Table Request ที่ verifyToken ตรงกัน" style="rounded=1;whiteSpace=wrap;html=1;" vertex="1" parent="btwDwO-bh5UdA42NUkLC-1">
          <mxGeometry x="240" y="70" width="120" height="60" as="geometry" />
        </mxCell>
        <mxCell id="btwDwO-bh5UdA42NUkLC-3" value="มีข้อมูล?" style="rhombus;whiteSpace=wrap;html=1;rounded=1;" vertex="1" parent="btwDwO-bh5UdA42NUkLC-1">
          <mxGeometry x="260" y="174" width="80" height="80" as="geometry" />
        </mxCell>
        <mxCell id="btwDwO-bh5UdA42NUkLC-4" value="" style="edgeStyle=orthogonalEdgeStyle;rounded=0;orthogonalLoop=1;jettySize=auto;html=1;" edge="1" parent="btwDwO-bh5UdA42NUkLC-1" source="btwDwO-bh5UdA42NUkLC-2" target="btwDwO-bh5UdA42NUkLC-3">
          <mxGeometry relative="1" as="geometry" />
        </mxCell>
        <mxCell id="btwDwO-bh5UdA42NUkLC-5" value="ส่ง Error Code 3&amp;nbsp;&amp;nbsp;&lt;br&gt;รหัสยืนยันตัวตนไม่ถูกต้อง" style="whiteSpace=wrap;html=1;rounded=1;" vertex="1" parent="btwDwO-bh5UdA42NUkLC-1">
          <mxGeometry x="430" y="196.5" width="160" height="35" as="geometry" />
        </mxCell>
        <mxCell id="btwDwO-bh5UdA42NUkLC-6" value="" style="edgeStyle=orthogonalEdgeStyle;rounded=0;orthogonalLoop=1;jettySize=auto;html=1;" edge="1" parent="btwDwO-bh5UdA42NUkLC-1" source="btwDwO-bh5UdA42NUkLC-3" target="btwDwO-bh5UdA42NUkLC-5">
          <mxGeometry relative="1" as="geometry" />
        </mxCell>
        <mxCell id="btwDwO-bh5UdA42NUkLC-7" value="ตรวจสอบไฟลแนบ" style="whiteSpace=wrap;html=1;rounded=1;" vertex="1" parent="btwDwO-bh5UdA42NUkLC-1">
          <mxGeometry x="240" y="314" width="120" height="60" as="geometry" />
        </mxCell>
        <mxCell id="btwDwO-bh5UdA42NUkLC-8" value="" style="edgeStyle=orthogonalEdgeStyle;rounded=0;orthogonalLoop=1;jettySize=auto;html=1;" edge="1" parent="btwDwO-bh5UdA42NUkLC-1" source="btwDwO-bh5UdA42NUkLC-3" target="btwDwO-bh5UdA42NUkLC-7">
          <mxGeometry relative="1" as="geometry" />
        </mxCell>
        <mxCell id="btwDwO-bh5UdA42NUkLC-9" value="ใช่" style="text;html=1;align=center;verticalAlign=middle;resizable=0;points=[];autosize=1;strokeColor=none;fillColor=none;" vertex="1" parent="btwDwO-bh5UdA42NUkLC-1">
          <mxGeometry x="260" y="269" width="40" height="30" as="geometry" />
        </mxCell>
        <mxCell id="btwDwO-bh5UdA42NUkLC-10" value="ไม่ใช่" style="text;html=1;align=center;verticalAlign=middle;resizable=0;points=[];autosize=1;strokeColor=none;fillColor=none;" vertex="1" parent="btwDwO-bh5UdA42NUkLC-1">
          <mxGeometry x="330" y="180" width="50" height="30" as="geometry" />
        </mxCell>
        <mxCell id="btwDwO-bh5UdA42NUkLC-11" value="มีข้อมูล?" style="rhombus;whiteSpace=wrap;html=1;rounded=1;" vertex="1" parent="btwDwO-bh5UdA42NUkLC-1">
          <mxGeometry x="260" y="414" width="80" height="80" as="geometry" />
        </mxCell>
        <mxCell id="btwDwO-bh5UdA42NUkLC-12" value="" style="edgeStyle=orthogonalEdgeStyle;rounded=0;orthogonalLoop=1;jettySize=auto;html=1;" edge="1" parent="btwDwO-bh5UdA42NUkLC-1" source="btwDwO-bh5UdA42NUkLC-7" target="btwDwO-bh5UdA42NUkLC-11">
          <mxGeometry relative="1" as="geometry" />
        </mxCell>
        <mxCell id="btwDwO-bh5UdA42NUkLC-13" value="ไม่ใช่" style="text;html=1;align=center;verticalAlign=middle;resizable=0;points=[];autosize=1;strokeColor=none;fillColor=none;" vertex="1" parent="btwDwO-bh5UdA42NUkLC-1">
          <mxGeometry x="200" y="414" width="50" height="30" as="geometry" />
        </mxCell>
        <mxCell id="btwDwO-bh5UdA42NUkLC-14" value="ใช่" style="text;html=1;align=center;verticalAlign=middle;resizable=0;points=[];autosize=1;strokeColor=none;fillColor=none;" vertex="1" parent="btwDwO-bh5UdA42NUkLC-1">
          <mxGeometry x="250" y="479" width="40" height="30" as="geometry" />
        </mxCell>
        <mxCell id="btwDwO-bh5UdA42NUkLC-15" value="อัปโหลดไฟลแนบ" style="whiteSpace=wrap;html=1;rounded=1;" vertex="1" parent="btwDwO-bh5UdA42NUkLC-1">
          <mxGeometry x="240" y="534" width="120" height="60" as="geometry" />
        </mxCell>
        <mxCell id="btwDwO-bh5UdA42NUkLC-16" value="" style="edgeStyle=orthogonalEdgeStyle;rounded=0;orthogonalLoop=1;jettySize=auto;html=1;" edge="1" parent="btwDwO-bh5UdA42NUkLC-1" source="btwDwO-bh5UdA42NUkLC-11" target="btwDwO-bh5UdA42NUkLC-15">
          <mxGeometry relative="1" as="geometry" />
        </mxCell>
        <mxCell id="btwDwO-bh5UdA42NUkLC-17" value="สำเร็จ?" style="rhombus;whiteSpace=wrap;html=1;rounded=1;" vertex="1" parent="btwDwO-bh5UdA42NUkLC-1">
          <mxGeometry x="260" y="634" width="80" height="80" as="geometry" />
        </mxCell>
        <mxCell id="btwDwO-bh5UdA42NUkLC-18" value="" style="edgeStyle=orthogonalEdgeStyle;rounded=0;orthogonalLoop=1;jettySize=auto;html=1;" edge="1" parent="btwDwO-bh5UdA42NUkLC-1" source="btwDwO-bh5UdA42NUkLC-15" target="btwDwO-bh5UdA42NUkLC-17">
          <mxGeometry relative="1" as="geometry" />
        </mxCell>
        <mxCell id="btwDwO-bh5UdA42NUkLC-19" value="ตรวจสอบว่ามีไฟลอีกหรือไม่" style="whiteSpace=wrap;html=1;rounded=1;" vertex="1" parent="btwDwO-bh5UdA42NUkLC-1">
          <mxGeometry x="240" y="744" width="120" height="60" as="geometry" />
        </mxCell>
        <mxCell id="btwDwO-bh5UdA42NUkLC-20" value="" style="edgeStyle=orthogonalEdgeStyle;rounded=0;orthogonalLoop=1;jettySize=auto;html=1;" edge="1" parent="btwDwO-bh5UdA42NUkLC-1" source="btwDwO-bh5UdA42NUkLC-17" target="btwDwO-bh5UdA42NUkLC-19">
          <mxGeometry relative="1" as="geometry" />
        </mxCell>
        <mxCell id="btwDwO-bh5UdA42NUkLC-21" style="edgeStyle=orthogonalEdgeStyle;rounded=0;orthogonalLoop=1;jettySize=auto;html=1;endArrow=classic;endFill=1;entryX=1;entryY=0.5;entryDx=0;entryDy=0;" edge="1" parent="btwDwO-bh5UdA42NUkLC-1" source="btwDwO-bh5UdA42NUkLC-22" target="btwDwO-bh5UdA42NUkLC-15">
          <mxGeometry relative="1" as="geometry">
            <mxPoint x="385" y="455" as="targetPoint" />
            <Array as="points">
              <mxPoint x="380" y="874" />
              <mxPoint x="380" y="564" />
            </Array>
          </mxGeometry>
        </mxCell>
        <mxCell id="btwDwO-bh5UdA42NUkLC-22" value="มีช้อมูล?" style="rhombus;whiteSpace=wrap;html=1;rounded=1;" vertex="1" parent="btwDwO-bh5UdA42NUkLC-1">
          <mxGeometry x="266.8800000000001" y="834" width="80" height="80" as="geometry" />
        </mxCell>
        <mxCell id="btwDwO-bh5UdA42NUkLC-23" value="" style="edgeStyle=orthogonalEdgeStyle;rounded=0;orthogonalLoop=1;jettySize=auto;html=1;" edge="1" parent="btwDwO-bh5UdA42NUkLC-1" source="btwDwO-bh5UdA42NUkLC-19" target="btwDwO-bh5UdA42NUkLC-22">
          <mxGeometry relative="1" as="geometry" />
        </mxCell>
        <mxCell id="btwDwO-bh5UdA42NUkLC-24" value="ส่ง Error Code 1&amp;nbsp;&amp;nbsp;&lt;br&gt;ไม่สามารถอัพโหลดเอกสารแนบได้" style="rounded=1;whiteSpace=wrap;html=1;" vertex="1" parent="btwDwO-bh5UdA42NUkLC-1">
          <mxGeometry x="70" y="644" width="120" height="60" as="geometry" />
        </mxCell>
        <mxCell id="btwDwO-bh5UdA42NUkLC-25" style="edgeStyle=orthogonalEdgeStyle;rounded=0;orthogonalLoop=1;jettySize=auto;html=1;" edge="1" parent="btwDwO-bh5UdA42NUkLC-1" source="btwDwO-bh5UdA42NUkLC-17" target="btwDwO-bh5UdA42NUkLC-24">
          <mxGeometry relative="1" as="geometry">
            <mxPoint x="390" y="674" as="targetPoint" />
          </mxGeometry>
        </mxCell>
        <mxCell id="btwDwO-bh5UdA42NUkLC-26" value="ใช่" style="text;html=1;align=center;verticalAlign=middle;resizable=0;points=[];autosize=1;strokeColor=none;fillColor=none;" vertex="1" parent="btwDwO-bh5UdA42NUkLC-1">
          <mxGeometry x="325" y="834" width="40" height="30" as="geometry" />
        </mxCell>
        <mxCell id="btwDwO-bh5UdA42NUkLC-27" value="ใช่" style="text;html=1;align=center;verticalAlign=middle;resizable=0;points=[];autosize=1;strokeColor=none;fillColor=none;" vertex="1" parent="btwDwO-bh5UdA42NUkLC-1">
          <mxGeometry x="300" y="699" width="40" height="30" as="geometry" />
        </mxCell>
        <mxCell id="btwDwO-bh5UdA42NUkLC-28" value="ไม่ใช่" style="text;html=1;align=center;verticalAlign=middle;resizable=0;points=[];autosize=1;strokeColor=none;fillColor=none;" vertex="1" parent="btwDwO-bh5UdA42NUkLC-1">
          <mxGeometry x="225" y="639" width="50" height="30" as="geometry" />
        </mxCell>
        <mxCell id="btwDwO-bh5UdA42NUkLC-29" value="" style="edgeStyle=orthogonalEdgeStyle;rounded=0;orthogonalLoop=1;jettySize=auto;html=1;" edge="1" parent="btwDwO-bh5UdA42NUkLC-1" source="btwDwO-bh5UdA42NUkLC-30" target="btwDwO-bh5UdA42NUkLC-2">
          <mxGeometry relative="1" as="geometry" />
        </mxCell>
        <mxCell id="btwDwO-bh5UdA42NUkLC-30" value="เริ่มต้น" style="ellipse;whiteSpace=wrap;html=1;" vertex="1" parent="btwDwO-bh5UdA42NUkLC-1">
          <mxGeometry x="270" width="60" height="40" as="geometry" />
        </mxCell>
        <mxCell id="btwDwO-bh5UdA42NUkLC-31" style="edgeStyle=orthogonalEdgeStyle;rounded=0;orthogonalLoop=1;jettySize=auto;html=1;exitX=0.5;exitY=1;exitDx=0;exitDy=0;endArrow=classic;endFill=1;entryX=0.5;entryY=0;entryDx=0;entryDy=0;" edge="1" parent="btwDwO-bh5UdA42NUkLC-1" source="btwDwO-bh5UdA42NUkLC-22" target="btwDwO-bh5UdA42NUkLC-50">
          <mxGeometry relative="1" as="geometry">
            <mxPoint x="380" y="455" as="targetPoint" />
          </mxGeometry>
        </mxCell>
        <mxCell id="btwDwO-bh5UdA42NUkLC-32" value="" style="ellipse;whiteSpace=wrap;html=1;aspect=fixed;" vertex="1" parent="btwDwO-bh5UdA42NUkLC-1">
          <mxGeometry x="285" y="2190" width="30" height="30" as="geometry" />
        </mxCell>
        <mxCell id="btwDwO-bh5UdA42NUkLC-33" style="edgeStyle=orthogonalEdgeStyle;rounded=0;orthogonalLoop=1;jettySize=auto;html=1;" edge="1" parent="btwDwO-bh5UdA42NUkLC-1" source="btwDwO-bh5UdA42NUkLC-24" target="btwDwO-bh5UdA42NUkLC-32">
          <mxGeometry relative="1" as="geometry">
            <mxPoint x="-24" y="770" as="targetPoint" />
            <Array as="points">
              <mxPoint y="674" />
              <mxPoint y="2205" />
            </Array>
          </mxGeometry>
        </mxCell>
        <mxCell id="btwDwO-bh5UdA42NUkLC-34" value="สิ้นสุด" style="ellipse;whiteSpace=wrap;html=1;" vertex="1" parent="btwDwO-bh5UdA42NUkLC-1">
          <mxGeometry x="260" y="2250" width="80" height="30" as="geometry" />
        </mxCell>
        <mxCell id="btwDwO-bh5UdA42NUkLC-35" value="" style="edgeStyle=orthogonalEdgeStyle;rounded=0;orthogonalLoop=1;jettySize=auto;html=1;" edge="1" parent="btwDwO-bh5UdA42NUkLC-1" source="btwDwO-bh5UdA42NUkLC-32" target="btwDwO-bh5UdA42NUkLC-34">
          <mxGeometry relative="1" as="geometry" />
        </mxCell>
        <mxCell id="btwDwO-bh5UdA42NUkLC-36" style="edgeStyle=orthogonalEdgeStyle;rounded=0;orthogonalLoop=1;jettySize=auto;html=1;endArrow=none;endFill=0;" edge="1" parent="btwDwO-bh5UdA42NUkLC-1" source="btwDwO-bh5UdA42NUkLC-37">
          <mxGeometry relative="1" as="geometry">
            <mxPoint y="680" as="targetPoint" />
          </mxGeometry>
        </mxCell>
        <mxCell id="btwDwO-bh5UdA42NUkLC-37" value="ส่ง Error Code 7&amp;nbsp;&amp;nbsp;&lt;br&gt;ไม่พบเอกสารไฟลแนบ" style="rounded=1;whiteSpace=wrap;html=1;" vertex="1" parent="btwDwO-bh5UdA42NUkLC-1">
          <mxGeometry x="60" y="424" width="120" height="60" as="geometry" />
        </mxCell>
        <mxCell id="btwDwO-bh5UdA42NUkLC-38" style="edgeStyle=orthogonalEdgeStyle;rounded=0;orthogonalLoop=1;jettySize=auto;html=1;endArrow=none;endFill=0;" edge="1" parent="btwDwO-bh5UdA42NUkLC-1">
          <mxGeometry relative="1" as="geometry">
            <mxPoint x="621" y="1410" as="targetPoint" />
            <mxPoint x="599.3800000000001" y="1084.0169491525423" as="sourcePoint" />
            <Array as="points">
              <mxPoint x="620" y="1084" />
            </Array>
          </mxGeometry>
        </mxCell>
        <mxCell id="btwDwO-bh5UdA42NUkLC-39" style="edgeStyle=orthogonalEdgeStyle;rounded=0;orthogonalLoop=1;jettySize=auto;html=1;endArrow=classic;endFill=1;" edge="1" parent="btwDwO-bh5UdA42NUkLC-1" source="btwDwO-bh5UdA42NUkLC-40">
          <mxGeometry relative="1" as="geometry">
            <mxPoint x="300.6300000000001" y="1699.9999999999998" as="targetPoint" />
          </mxGeometry>
        </mxCell>
        <mxCell id="btwDwO-bh5UdA42NUkLC-40" value="ซ้ำซ้อน?" style="rhombus;whiteSpace=wrap;html=1;rounded=1;" vertex="1" parent="btwDwO-bh5UdA42NUkLC-1">
          <mxGeometry x="260.6300000000001" y="1570" width="80" height="80" as="geometry" />
        </mxCell>
        <mxCell id="btwDwO-bh5UdA42NUkLC-41" value="ไม่" style="text;html=1;align=center;verticalAlign=middle;resizable=0;points=[];autosize=1;strokeColor=none;fillColor=none;" vertex="1" parent="btwDwO-bh5UdA42NUkLC-1">
          <mxGeometry x="329.3800000000001" y="1570" width="40" height="30" as="geometry" />
        </mxCell>
        <mxCell id="btwDwO-bh5UdA42NUkLC-42" value="ใช่" style="text;html=1;align=center;verticalAlign=middle;resizable=0;points=[];autosize=1;strokeColor=none;fillColor=none;" vertex="1" parent="btwDwO-bh5UdA42NUkLC-1">
          <mxGeometry x="253.3800000000001" y="1650" width="40" height="30" as="geometry" />
        </mxCell>
        <mxCell id="btwDwO-bh5UdA42NUkLC-43" style="edgeStyle=orthogonalEdgeStyle;rounded=0;orthogonalLoop=1;jettySize=auto;html=1;endArrow=classic;endFill=1;entryX=1;entryY=0.5;entryDx=0;entryDy=0;" edge="1" parent="btwDwO-bh5UdA42NUkLC-1" source="btwDwO-bh5UdA42NUkLC-66" target="btwDwO-bh5UdA42NUkLC-32">
          <mxGeometry relative="1" as="geometry">
            <mxPoint x="600" y="2200" as="targetPoint" />
            <Array as="points">
              <mxPoint x="620" y="1400" />
              <mxPoint x="620" y="2205" />
            </Array>
          </mxGeometry>
        </mxCell>
        <mxCell id="btwDwO-bh5UdA42NUkLC-44" style="edgeStyle=orthogonalEdgeStyle;rounded=0;orthogonalLoop=1;jettySize=auto;html=1;endArrow=none;endFill=0;" edge="1" parent="btwDwO-bh5UdA42NUkLC-1" source="btwDwO-bh5UdA42NUkLC-64">
          <mxGeometry relative="1" as="geometry">
            <mxPoint x="619.3800000000001" y="1314" as="targetPoint" />
          </mxGeometry>
        </mxCell>
        <mxCell id="btwDwO-bh5UdA42NUkLC-45" value="ปรับปรุงข้อมูลผู้ถือหุ้น โดยนำข้อมูลใน table Request ที่ตรงกับ verifyToken ปรับปรุงลงใน Table Request&amp;nbsp;" style="rounded=1;whiteSpace=wrap;html=1;" vertex="1" parent="btwDwO-bh5UdA42NUkLC-1">
          <mxGeometry x="226.1300000000001" y="1700" width="149" height="60" as="geometry" />
        </mxCell>
        <mxCell id="btwDwO-bh5UdA42NUkLC-46" value="บันทึกข้อมูล" style="whiteSpace=wrap;html=1;rounded=1;" vertex="1" parent="btwDwO-bh5UdA42NUkLC-1">
          <mxGeometry x="240.6300000000001" y="2000" width="120" height="60" as="geometry" />
        </mxCell>
        <mxCell id="btwDwO-bh5UdA42NUkLC-47" value="สำเร็จ?" style="rhombus;whiteSpace=wrap;html=1;rounded=1;" vertex="1" parent="btwDwO-bh5UdA42NUkLC-1">
          <mxGeometry x="260.6300000000001" y="2083" width="80" height="80" as="geometry" />
        </mxCell>
        <mxCell id="btwDwO-bh5UdA42NUkLC-48" value="" style="edgeStyle=orthogonalEdgeStyle;rounded=0;orthogonalLoop=1;jettySize=auto;html=1;" edge="1" parent="btwDwO-bh5UdA42NUkLC-1" source="btwDwO-bh5UdA42NUkLC-11" target="btwDwO-bh5UdA42NUkLC-37">
          <mxGeometry relative="1" as="geometry" />
        </mxCell>
        <mxCell id="btwDwO-bh5UdA42NUkLC-49" value="" style="edgeStyle=orthogonalEdgeStyle;rounded=0;orthogonalLoop=1;jettySize=auto;html=1;endArrow=classic;endFill=1;" edge="1" parent="btwDwO-bh5UdA42NUkLC-1" source="btwDwO-bh5UdA42NUkLC-46" target="btwDwO-bh5UdA42NUkLC-47">
          <mxGeometry relative="1" as="geometry" />
        </mxCell>
        <mxCell id="btwDwO-bh5UdA42NUkLC-50" value="ตรวจสอบเวลาเปิดยื่นรับแบบคำร้องจาก table meeting" style="rounded=1;whiteSpace=wrap;html=1;" vertex="1" parent="btwDwO-bh5UdA42NUkLC-1">
          <mxGeometry x="246.8800000000001" y="950" width="120" height="60" as="geometry" />
        </mxCell>
        <mxCell id="btwDwO-bh5UdA42NUkLC-51" value="เปิดรับเอกสาร?" style="rhombus;whiteSpace=wrap;html=1;rounded=1;" vertex="1" parent="btwDwO-bh5UdA42NUkLC-1">
          <mxGeometry x="266.8800000000001" y="1044" width="80" height="80" as="geometry" />
        </mxCell>
        <mxCell id="btwDwO-bh5UdA42NUkLC-52" value="" style="edgeStyle=orthogonalEdgeStyle;rounded=0;orthogonalLoop=1;jettySize=auto;html=1;" edge="1" parent="btwDwO-bh5UdA42NUkLC-1" source="btwDwO-bh5UdA42NUkLC-50" target="btwDwO-bh5UdA42NUkLC-51">
          <mxGeometry relative="1" as="geometry" />
        </mxCell>
        <mxCell id="btwDwO-bh5UdA42NUkLC-53" value="ส่ง Error Code&amp;nbsp; 4&amp;nbsp;&lt;br&gt;การยื่นเอกสารคำร้อง&lt;br&gt;ยังไม่เปิด/ปิดอยู่" style="whiteSpace=wrap;html=1;rounded=1;" vertex="1" parent="btwDwO-bh5UdA42NUkLC-1">
          <mxGeometry x="439.3800000000001" y="1059" width="160" height="50" as="geometry" />
        </mxCell>
        <mxCell id="btwDwO-bh5UdA42NUkLC-54" style="edgeStyle=orthogonalEdgeStyle;rounded=0;orthogonalLoop=1;jettySize=auto;html=1;entryX=0;entryY=0.5;entryDx=0;entryDy=0;" edge="1" parent="btwDwO-bh5UdA42NUkLC-1" source="btwDwO-bh5UdA42NUkLC-51" target="btwDwO-bh5UdA42NUkLC-53">
          <mxGeometry relative="1" as="geometry">
            <mxPoint x="409.3800000000001" y="979" as="targetPoint" />
          </mxGeometry>
        </mxCell>
        <mxCell id="btwDwO-bh5UdA42NUkLC-55" value="ไม่ใช่" style="text;html=1;align=center;verticalAlign=middle;resizable=0;points=[];autosize=1;strokeColor=none;fillColor=none;" vertex="1" parent="btwDwO-bh5UdA42NUkLC-1">
          <mxGeometry x="344.3800000000001" y="1044" width="50" height="30" as="geometry" />
        </mxCell>
        <mxCell id="btwDwO-bh5UdA42NUkLC-56" value="ใช่" style="text;html=1;align=center;verticalAlign=middle;resizable=0;points=[];autosize=1;strokeColor=none;fillColor=none;" vertex="1" parent="btwDwO-bh5UdA42NUkLC-1">
          <mxGeometry x="254.3800000000001" y="1114" width="40" height="30" as="geometry" />
        </mxCell>
        <mxCell id="btwDwO-bh5UdA42NUkLC-57" value="ตรวจสอบข้อมูล&lt;br&gt;ตรวจสอบความเป็นผู้ถือหุ้น โดยตรวจสอบจาก Table Shareholder&amp;nbsp;" style="whiteSpace=wrap;html=1;rounded=1;" vertex="1" parent="btwDwO-bh5UdA42NUkLC-1">
          <mxGeometry x="209.3800000000001" y="1154" width="195" height="85" as="geometry" />
        </mxCell>
        <mxCell id="btwDwO-bh5UdA42NUkLC-58" value="เป็นผู้ถือหุ้น?" style="rhombus;whiteSpace=wrap;html=1;rounded=1;" vertex="1" parent="btwDwO-bh5UdA42NUkLC-1">
          <mxGeometry x="266.8800000000001" y="1274" width="80" height="80" as="geometry" />
        </mxCell>
        <mxCell id="btwDwO-bh5UdA42NUkLC-59" style="edgeStyle=orthogonalEdgeStyle;rounded=0;orthogonalLoop=1;jettySize=auto;html=1;entryX=0.5;entryY=0;entryDx=0;entryDy=0;" edge="1" parent="btwDwO-bh5UdA42NUkLC-1" source="btwDwO-bh5UdA42NUkLC-51" target="btwDwO-bh5UdA42NUkLC-57">
          <mxGeometry relative="1" as="geometry">
            <mxPoint x="299.3800000000001" y="1150" as="targetPoint" />
          </mxGeometry>
        </mxCell>
        <mxCell id="btwDwO-bh5UdA42NUkLC-60" value="" style="edgeStyle=orthogonalEdgeStyle;rounded=0;orthogonalLoop=1;jettySize=auto;html=1;" edge="1" parent="btwDwO-bh5UdA42NUkLC-1" source="btwDwO-bh5UdA42NUkLC-57" target="btwDwO-bh5UdA42NUkLC-58">
          <mxGeometry relative="1" as="geometry" />
        </mxCell>
        <mxCell id="btwDwO-bh5UdA42NUkLC-61" value="ใช่" style="text;html=1;align=center;verticalAlign=middle;resizable=0;points=[];autosize=1;strokeColor=none;fillColor=none;" vertex="1" parent="btwDwO-bh5UdA42NUkLC-1">
          <mxGeometry x="253.3800000000001" y="1354" width="40" height="30" as="geometry" />
        </mxCell>
        <mxCell id="btwDwO-bh5UdA42NUkLC-62" value="ไม่ใช่" style="text;html=1;align=center;verticalAlign=middle;resizable=0;points=[];autosize=1;strokeColor=none;fillColor=none;" vertex="1" parent="btwDwO-bh5UdA42NUkLC-1">
          <mxGeometry x="346.8800000000001" y="1279" width="50" height="30" as="geometry" />
        </mxCell>
        <mxCell id="btwDwO-bh5UdA42NUkLC-63" value="ตรวจสอบข้อมูล&lt;br&gt;ตรวจสอบความซ้ำซ้อนของเอกสาร ว่าเคยมีการยื่นมาหรือไม่ โดยมีเงื่อนไขคือ เลขทะเบียนผู้ถือหุ้น เเละ เบอรโทร และ อีเมล์ ต้องตรงกันใน Table Request&amp;nbsp;" style="whiteSpace=wrap;html=1;rounded=1;" vertex="1" parent="btwDwO-bh5UdA42NUkLC-1">
          <mxGeometry x="188.1300000000001" y="1404" width="237.5" height="100" as="geometry" />
        </mxCell>
        <mxCell id="btwDwO-bh5UdA42NUkLC-64" value="ส่ง Error Code 6 ไม่พบข้อมูลผู้ถือหุ้นนี้ในระบบ" style="whiteSpace=wrap;html=1;rounded=1;" vertex="1" parent="btwDwO-bh5UdA42NUkLC-1">
          <mxGeometry x="459.3800000000001" y="1284" width="120" height="60" as="geometry" />
        </mxCell>
        <mxCell id="btwDwO-bh5UdA42NUkLC-65" style="edgeStyle=orthogonalEdgeStyle;rounded=0;orthogonalLoop=1;jettySize=auto;html=1;entryX=0;entryY=0.5;entryDx=0;entryDy=0;exitX=1;exitY=0.5;exitDx=0;exitDy=0;" edge="1" parent="btwDwO-bh5UdA42NUkLC-1" source="btwDwO-bh5UdA42NUkLC-58" target="btwDwO-bh5UdA42NUkLC-64">
          <mxGeometry relative="1" as="geometry">
            <Array as="points">
              <mxPoint x="409.3800000000001" y="1314" />
              <mxPoint x="409.3800000000001" y="1314" />
            </Array>
          </mxGeometry>
        </mxCell>
        <mxCell id="btwDwO-bh5UdA42NUkLC-66" value="ส่ง Error Code 5 ไม่พบเอกสารคำร้องที่ตรงกับข้อมูลผู้ถือหุ้น" style="whiteSpace=wrap;html=1;rounded=1;" vertex="1" parent="btwDwO-bh5UdA42NUkLC-1">
          <mxGeometry x="459.3800000000001" y="1370" width="120" height="60" as="geometry" />
        </mxCell>
        <mxCell id="btwDwO-bh5UdA42NUkLC-67" style="edgeStyle=orthogonalEdgeStyle;rounded=0;orthogonalLoop=1;jettySize=auto;html=1;endArrow=none;endFill=0;" edge="1" parent="btwDwO-bh5UdA42NUkLC-1" source="btwDwO-bh5UdA42NUkLC-68">
          <mxGeometry relative="1" as="geometry">
            <mxPoint x="620" y="2123" as="targetPoint" />
          </mxGeometry>
        </mxCell>
        <mxCell id="btwDwO-bh5UdA42NUkLC-68" value="ส่ง Error Code&amp;nbsp; 2&amp;nbsp;&lt;br&gt;ไม่สามารถบันทึกข้อมูลได้" style="rounded=1;whiteSpace=wrap;html=1;" vertex="1" parent="btwDwO-bh5UdA42NUkLC-1">
          <mxGeometry x="439.3800000000001" y="2092.5" width="120" height="61" as="geometry" />
        </mxCell>
        <mxCell id="btwDwO-bh5UdA42NUkLC-69" value="ไม่ใช่" style="text;html=1;align=center;verticalAlign=middle;resizable=0;points=[];autosize=1;strokeColor=none;fillColor=none;" vertex="1" parent="btwDwO-bh5UdA42NUkLC-1">
          <mxGeometry x="325.1300000000001" y="2083" width="50" height="30" as="geometry" />
        </mxCell>
        <mxCell id="btwDwO-bh5UdA42NUkLC-70" value="ใช่" style="text;html=1;align=center;verticalAlign=middle;resizable=0;points=[];autosize=1;strokeColor=none;fillColor=none;" vertex="1" parent="btwDwO-bh5UdA42NUkLC-1">
          <mxGeometry x="241" y="2083" width="40" height="30" as="geometry" />
        </mxCell>
        <mxCell id="btwDwO-bh5UdA42NUkLC-71" value="ตรวจสอบข้อมูลการรับมอบฉันทะ จากที่ได้รับมาจาก paramter in : requestInfo" style="whiteSpace=wrap;html=1;rounded=1;" vertex="1" parent="btwDwO-bh5UdA42NUkLC-1">
          <mxGeometry x="240.6300000000001" y="1790" width="120" height="60" as="geometry" />
        </mxCell>
        <mxCell id="btwDwO-bh5UdA42NUkLC-72" value="" style="edgeStyle=orthogonalEdgeStyle;rounded=0;orthogonalLoop=1;jettySize=auto;html=1;exitX=0.5;exitY=1;exitDx=0;exitDy=0;" edge="1" parent="btwDwO-bh5UdA42NUkLC-1" source="btwDwO-bh5UdA42NUkLC-63" target="btwDwO-bh5UdA42NUkLC-40">
          <mxGeometry relative="1" as="geometry">
            <mxPoint x="300.3800000000001" y="1550" as="sourcePoint" />
            <Array as="points">
              <mxPoint x="300.3800000000001" y="1504" />
            </Array>
          </mxGeometry>
        </mxCell>
        <mxCell id="btwDwO-bh5UdA42NUkLC-73" style="edgeStyle=orthogonalEdgeStyle;rounded=0;orthogonalLoop=1;jettySize=auto;html=1;entryX=0.5;entryY=0;entryDx=0;entryDy=0;endArrow=classic;endFill=1;" edge="1" parent="btwDwO-bh5UdA42NUkLC-1" source="btwDwO-bh5UdA42NUkLC-74" target="btwDwO-bh5UdA42NUkLC-46">
          <mxGeometry relative="1" as="geometry" />
        </mxCell>
        <mxCell id="btwDwO-bh5UdA42NUkLC-74" value="มีข้อมูล?" style="rhombus;whiteSpace=wrap;html=1;rounded=1;" vertex="1" parent="btwDwO-bh5UdA42NUkLC-1">
          <mxGeometry x="260.6300000000001" y="1870" width="80" height="80" as="geometry" />
        </mxCell>
        <mxCell id="btwDwO-bh5UdA42NUkLC-75" value="" style="edgeStyle=orthogonalEdgeStyle;rounded=0;orthogonalLoop=1;jettySize=auto;html=1;endArrow=classic;endFill=1;" edge="1" parent="btwDwO-bh5UdA42NUkLC-1" source="btwDwO-bh5UdA42NUkLC-58" target="btwDwO-bh5UdA42NUkLC-63">
          <mxGeometry relative="1" as="geometry" />
        </mxCell>
        <mxCell id="btwDwO-bh5UdA42NUkLC-76" style="edgeStyle=orthogonalEdgeStyle;rounded=0;orthogonalLoop=1;jettySize=auto;html=1;entryX=0;entryY=0.5;entryDx=0;entryDy=0;endArrow=classic;endFill=1;exitX=0.5;exitY=1;exitDx=0;exitDy=0;" edge="1" parent="btwDwO-bh5UdA42NUkLC-1" source="btwDwO-bh5UdA42NUkLC-77" target="btwDwO-bh5UdA42NUkLC-46">
          <mxGeometry relative="1" as="geometry" />
        </mxCell>
        <mxCell id="btwDwO-bh5UdA42NUkLC-77" value="ปรับปรุงข้อมูลการรับมอบฉันทะ" style="whiteSpace=wrap;html=1;rounded=1;" vertex="1" parent="btwDwO-bh5UdA42NUkLC-1">
          <mxGeometry x="80.63000000000011" y="1880" width="120" height="60" as="geometry" />
        </mxCell>
        <mxCell id="btwDwO-bh5UdA42NUkLC-78" value="ใช่" style="text;html=1;align=center;verticalAlign=middle;resizable=0;points=[];autosize=1;strokeColor=none;fillColor=none;" vertex="1" parent="btwDwO-bh5UdA42NUkLC-1">
          <mxGeometry x="219.3800000000001" y="1865" width="40" height="30" as="geometry" />
        </mxCell>
        <mxCell id="btwDwO-bh5UdA42NUkLC-79" value="ไม่ใช่" style="text;html=1;align=center;verticalAlign=middle;resizable=0;points=[];autosize=1;strokeColor=none;fillColor=none;" vertex="1" parent="btwDwO-bh5UdA42NUkLC-1">
          <mxGeometry x="294.3800000000001" y="1965" width="50" height="30" as="geometry" />
        </mxCell>
        <mxCell id="btwDwO-bh5UdA42NUkLC-80" style="edgeStyle=orthogonalEdgeStyle;rounded=0;orthogonalLoop=1;jettySize=auto;html=1;entryX=0;entryY=0.5;entryDx=0;entryDy=0;endArrow=classic;endFill=1;" edge="1" parent="btwDwO-bh5UdA42NUkLC-1" source="btwDwO-bh5UdA42NUkLC-47" target="btwDwO-bh5UdA42NUkLC-68">
          <mxGeometry relative="1" as="geometry" />
        </mxCell>
        <mxCell id="btwDwO-bh5UdA42NUkLC-81" value="" style="edgeStyle=orthogonalEdgeStyle;rounded=0;orthogonalLoop=1;jettySize=auto;html=1;entryX=0;entryY=0.5;entryDx=0;entryDy=0;" edge="1" parent="btwDwO-bh5UdA42NUkLC-1" source="btwDwO-bh5UdA42NUkLC-40" target="btwDwO-bh5UdA42NUkLC-66">
          <mxGeometry relative="1" as="geometry">
            <Array as="points">
              <mxPoint x="449.3800000000001" y="1610" />
              <mxPoint x="449.3800000000001" y="1400" />
            </Array>
          </mxGeometry>
        </mxCell>
        <mxCell id="btwDwO-bh5UdA42NUkLC-82" value="" style="edgeStyle=orthogonalEdgeStyle;rounded=0;orthogonalLoop=1;jettySize=auto;html=1;endArrow=classic;endFill=1;" edge="1" parent="btwDwO-bh5UdA42NUkLC-1" source="btwDwO-bh5UdA42NUkLC-45" target="btwDwO-bh5UdA42NUkLC-71">
          <mxGeometry relative="1" as="geometry" />
        </mxCell>
        <mxCell id="btwDwO-bh5UdA42NUkLC-83" value="" style="edgeStyle=orthogonalEdgeStyle;rounded=0;orthogonalLoop=1;jettySize=auto;html=1;endArrow=classic;endFill=1;" edge="1" parent="btwDwO-bh5UdA42NUkLC-1" source="btwDwO-bh5UdA42NUkLC-71" target="btwDwO-bh5UdA42NUkLC-74">
          <mxGeometry relative="1" as="geometry" />
        </mxCell>
        <mxCell id="btwDwO-bh5UdA42NUkLC-84" value="" style="edgeStyle=orthogonalEdgeStyle;rounded=0;orthogonalLoop=1;jettySize=auto;html=1;endArrow=classic;endFill=1;" edge="1" parent="btwDwO-bh5UdA42NUkLC-1" source="btwDwO-bh5UdA42NUkLC-74" target="btwDwO-bh5UdA42NUkLC-77">
          <mxGeometry relative="1" as="geometry" />
        </mxCell>
        <mxCell id="btwDwO-bh5UdA42NUkLC-85" value="ไม่ใช่" style="text;html=1;align=center;verticalAlign=middle;resizable=0;points=[];autosize=1;strokeColor=none;fillColor=none;" vertex="1" parent="btwDwO-bh5UdA42NUkLC-1">
          <mxGeometry x="300" y="920" width="50" height="30" as="geometry" />
        </mxCell>
        <mxCell id="btwDwO-bh5UdA42NUkLC-86" style="edgeStyle=orthogonalEdgeStyle;rounded=0;orthogonalLoop=1;jettySize=auto;html=1;entryX=0;entryY=0;entryDx=0;entryDy=0;endArrow=classic;endFill=1;" edge="1" parent="btwDwO-bh5UdA42NUkLC-1" source="btwDwO-bh5UdA42NUkLC-87" target="btwDwO-bh5UdA42NUkLC-32">
          <mxGeometry relative="1" as="geometry">
            <Array as="points">
              <mxPoint x="156" y="2170" />
              <mxPoint x="289" y="2170" />
            </Array>
          </mxGeometry>
        </mxCell>
        <mxCell id="btwDwO-bh5UdA42NUkLC-87" value="ส่งกลับข้อมูลผู้ถือหุ้น" style="rounded=1;whiteSpace=wrap;html=1;" vertex="1" parent="btwDwO-bh5UdA42NUkLC-1">
          <mxGeometry x="86.13000000000011" y="2103" width="140" height="40" as="geometry" />
        </mxCell>
        <mxCell id="btwDwO-bh5UdA42NUkLC-88" value="" style="edgeStyle=orthogonalEdgeStyle;rounded=0;orthogonalLoop=1;jettySize=auto;html=1;endArrow=classic;endFill=1;" edge="1" parent="btwDwO-bh5UdA42NUkLC-1" source="btwDwO-bh5UdA42NUkLC-47" target="btwDwO-bh5UdA42NUkLC-87">
          <mxGeometry relative="1" as="geometry" />
        </mxCell>
        <mxCell id="LUO4aHITevrQVlcutaKi-1" style="edgeStyle=orthogonalEdgeStyle;rounded=0;orthogonalLoop=1;jettySize=auto;html=1;endArrow=none;endFill=0;" edge="1" parent="1" source="btwDwO-bh5UdA42NUkLC-5">
          <mxGeometry relative="1" as="geometry">
            <mxPoint x="690.0000000000002" y="1135.4545454545455" as="targetPoint" />
          </mxGeometry>
        </mxCell>
      </root>
    </mxGraphModel>
  </diagram>
</mxfile>
